# MagicaVoxel @ Ephtracy

# material
mtllib 5x5 dungeon GeeKey.mtl
usemtl palette

# normals
vn -1 0 0
vn 1 0 0
vn 0 0 1
vn 0 0 -1
vn 0 -1 0
vn 0 1 0

# texcoords
vt 0.00195313 0.5
vt 0.00585938 0.5
vt 0.00976563 0.5
vt 0.0175781 0.5
vt 0.0214844 0.5
vt 0.0253906 0.5
vt 0.0292969 0.5
vt 0.0410156 0.5
vt 0.0449219 0.5

# verts
v -4 0 0.5
v -4 0 -0.5
v -4 1 0.5
v -4 1 -0.5
v -4 4 0.5
v -4 4 -0.5
v -4 5 0.5
v -4 5 -0.5
v -3 5 0.5
v -3 5 -0.5
v -3 8 0.5
v -3 8 -0.5
v -3 10 0.5
v -3 10 -0.5
v 1 9 0.5
v 1 9 -0.5
v 1 10 0.5
v 1 10 -0.5
v 3 5 0.5
v 3 5 -0.5
v 3 6 0.5
v 3 6 -0.5
v 3 9 0.5
v 3 9 -0.5
v 4 0 0.5
v 4 0 -0.5
v 4 1 0.5
v 4 1 -0.5
v 4 4 0.5
v 4 4 -0.5
v 4 5 0.5
v 4 5 -0.5
v -4 0 0.5
v -4 1 0.5
v -4 4 0.5
v -4 5 0.5
v -3 0 0.5
v -3 1 0.5
v -3 4 0.5
v -3 5 0.5
v -3 8 0.5
v -3 10 0.5
v -2 1 0.5
v -2 2 0.5
v -2 5 0.5
v -2 7 0.5
v -2 8 0.5
v -2 10 0.5
v -1 1 0.5
v -1 2 0.5
v -1 3 0.5
v -1 4 0.5
v -1 7 0.5
v -1 8 0.5
v -1 10 0.5
v 0 1 0.5
v 0 2 0.5
v 0 6 0.5
v 0 7 0.5
v 0 8 0.5
v 0 10 0.5
v 1 1 0.5
v 1 2 0.5
v 1 3 0.5
v 1 4 0.5
v 1 6 0.5
v 1 7 0.5
v 1 9 0.5
v 1 10 0.5
v 2 2 0.5
v 2 5 0.5
v 2 6 0.5
v 2 9 0.5
v 3 0 0.5
v 3 1 0.5
v 3 4 0.5
v 3 5 0.5
v 3 6 0.5
v 3 9 0.5
v 4 0 0.5
v 4 1 0.5
v 4 4 0.5
v 4 5 0.5
v -4 0 -0.5
v -4 1 -0.5
v -4 4 -0.5
v -4 5 -0.5
v -3 0 -0.5
v -3 1 -0.5
v -3 4 -0.5
v -3 5 -0.5
v -3 8 -0.5
v -3 10 -0.5
v -2 1 -0.5
v -2 2 -0.5
v -2 5 -0.5
v -2 7 -0.5
v -2 8 -0.5
v -2 10 -0.5
v -1 1 -0.5
v -1 2 -0.5
v -1 3 -0.5
v -1 4 -0.5
v -1 7 -0.5
v -1 8 -0.5
v -1 10 -0.5
v 0 1 -0.5
v 0 2 -0.5
v 0 6 -0.5
v 0 7 -0.5
v 0 8 -0.5
v 0 10 -0.5
v 1 1 -0.5
v 1 2 -0.5
v 1 3 -0.5
v 1 4 -0.5
v 1 6 -0.5
v 1 7 -0.5
v 1 9 -0.5
v 1 10 -0.5
v 2 2 -0.5
v 2 5 -0.5
v 2 6 -0.5
v 2 9 -0.5
v 3 0 -0.5
v 3 1 -0.5
v 3 4 -0.5
v 3 5 -0.5
v 3 6 -0.5
v 3 9 -0.5
v 4 0 -0.5
v 4 1 -0.5
v 4 4 -0.5
v 4 5 -0.5
v -4 0 0.5
v -3 0 0.5
v 3 0 0.5
v 4 0 0.5
v -4 0 -0.5
v -3 0 -0.5
v 3 0 -0.5
v 4 0 -0.5
v -4 5 0.5
v -3 5 0.5
v 3 5 0.5
v 4 5 0.5
v -4 5 -0.5
v -3 5 -0.5
v 3 5 -0.5
v 4 5 -0.5
v 1 9 0.5
v 2 9 0.5
v 3 9 0.5
v 1 9 -0.5
v 2 9 -0.5
v 3 9 -0.5
v -3 10 0.5
v -2 10 0.5
v -1 10 0.5
v 0 10 0.5
v 1 10 0.5
v -3 10 -0.5
v -2 10 -0.5
v -1 10 -0.5
v 0 10 -0.5
v 1 10 -0.5

# faces
f 3/1/1 2/1/1 1/1/1
f 4/1/1 2/1/1 3/1/1
f 5/2/1 4/2/1 3/2/1
f 6/2/1 4/2/1 5/2/1
f 7/1/1 6/1/1 5/1/1
f 8/1/1 6/1/1 7/1/1
f 11/2/1 10/2/1 9/2/1
f 12/2/1 10/2/1 11/2/1
f 13/9/1 12/9/1 11/9/1
f 14/9/1 12/9/1 13/9/1
f 15/6/2 16/6/2 17/6/2
f 17/6/2 16/6/2 18/6/2
f 19/2/2 20/2/2 21/2/2
f 21/2/2 20/2/2 22/2/2
f 21/6/2 22/6/2 23/6/2
f 23/6/2 22/6/2 24/6/2
f 25/1/2 26/1/2 27/1/2
f 27/1/2 26/1/2 28/1/2
f 27/2/2 28/2/2 29/2/2
f 29/2/2 28/2/2 30/2/2
f 29/1/2 30/1/2 31/1/2
f 31/1/2 30/1/2 32/1/2
f 37/1/3 34/1/3 33/1/3
f 38/2/3 35/2/3 34/2/3
f 38/1/3 34/1/3 37/1/3
f 39/1/3 36/1/3 35/1/3
f 39/2/3 35/2/3 38/2/3
f 40/1/3 36/1/3 39/1/3
f 43/2/3 38/2/3 37/2/3
f 43/4/3 39/4/3 38/4/3
f 43/4/3 40/4/3 39/4/3
f 44/4/3 40/4/3 43/4/3
f 45/2/3 41/2/3 40/2/3
f 45/4/3 40/4/3 44/4/3
f 46/2/3 41/2/3 45/2/3
f 47/9/3 42/9/3 41/9/3
f 47/2/3 41/2/3 46/2/3
f 48/9/3 42/9/3 47/9/3
f 49/9/3 44/9/3 43/9/3
f 49/2/3 43/2/3 37/2/3
f 50/2/3 46/2/3 45/2/3
f 50/9/3 44/9/3 49/9/3
f 50/2/3 45/2/3 44/2/3
f 51/2/3 46/2/3 50/2/3
f 52/2/3 46/2/3 51/2/3
f 53/3/3 47/3/3 46/3/3
f 53/2/3 46/2/3 52/2/3
f 54/6/3 48/6/3 47/6/3
f 54/3/3 47/3/3 53/3/3
f 55/6/3 48/6/3 54/6/3
f 56/2/3 49/2/3 37/2/3
f 56/7/3 50/7/3 49/7/3
f 57/2/3 51/2/3 50/2/3
f 57/7/3 50/7/3 56/7/3
f 58/2/3 53/2/3 52/2/3
f 58/2/3 54/2/3 53/2/3
f 59/2/3 54/2/3 58/2/3
f 60/9/3 55/9/3 54/9/3
f 60/2/3 54/2/3 59/2/3
f 61/9/3 55/9/3 60/9/3
f 62/2/3 56/2/3 37/2/3
f 62/8/3 57/8/3 56/8/3
f 63/2/3 51/2/3 57/2/3
f 63/8/3 57/8/3 62/8/3
f 64/5/3 52/5/3 51/5/3
f 64/2/3 51/2/3 63/2/3
f 65/2/3 58/2/3 52/2/3
f 65/5/3 52/5/3 64/5/3
f 66/3/3 59/3/3 58/3/3
f 66/2/3 58/2/3 65/2/3
f 67/6/3 61/6/3 60/6/3
f 67/3/3 59/3/3 66/3/3
f 67/6/3 60/6/3 59/6/3
f 68/6/3 61/6/3 67/6/3
f 69/6/3 61/6/3 68/6/3
f 70/4/3 63/4/3 62/4/3
f 70/2/3 65/2/3 64/2/3
f 70/2/3 66/2/3 65/2/3
f 70/2/3 64/2/3 63/2/3
f 71/2/3 66/2/3 70/2/3
f 72/9/3 68/9/3 67/9/3
f 72/2/3 66/2/3 71/2/3
f 72/9/3 67/9/3 66/9/3
f 73/9/3 68/9/3 72/9/3
f 74/2/3 62/2/3 37/2/3
f 75/4/3 71/4/3 70/4/3
f 75/2/3 62/2/3 74/2/3
f 75/4/3 70/4/3 62/4/3
f 76/4/3 71/4/3 75/4/3
f 77/2/3 72/2/3 71/2/3
f 77/4/3 71/4/3 76/4/3
f 78/6/3 73/6/3 72/6/3
f 78/2/3 72/2/3 77/2/3
f 79/6/3 73/6/3 78/6/3
f 80/1/3 75/1/3 74/1/3
f 81/2/3 76/2/3 75/2/3
f 81/1/3 75/1/3 80/1/3
f 82/1/3 77/1/3 76/1/3
f 82/2/3 76/2/3 81/2/3
f 83/1/3 77/1/3 82/1/3
f 84/1/4 85/1/4 88/1/4
f 85/2/4 86/2/4 89/2/4
f 88/1/4 85/1/4 89/1/4
f 86/1/4 87/1/4 90/1/4
f 89/2/4 86/2/4 90/2/4
f 90/1/4 87/1/4 91/1/4
f 88/2/4 89/2/4 94/2/4
f 89/4/4 90/4/4 94/4/4
f 90/4/4 91/4/4 94/4/4
f 94/4/4 91/4/4 95/4/4
f 91/2/4 92/2/4 96/2/4
f 95/4/4 91/4/4 96/4/4
f 96/2/4 92/2/4 97/2/4
f 92/9/4 93/9/4 98/9/4
f 97/2/4 92/2/4 98/2/4
f 98/9/4 93/9/4 99/9/4
f 94/9/4 95/9/4 100/9/4
f 88/2/4 94/2/4 100/2/4
f 96/2/4 97/2/4 101/2/4
f 100/9/4 95/9/4 101/9/4
f 95/2/4 96/2/4 101/2/4
f 101/2/4 97/2/4 102/2/4
f 102/2/4 97/2/4 103/2/4
f 97/3/4 98/3/4 104/3/4
f 103/2/4 97/2/4 104/2/4
f 98/6/4 99/6/4 105/6/4
f 104/3/4 98/3/4 105/3/4
f 105/6/4 99/6/4 106/6/4
f 88/2/4 100/2/4 107/2/4
f 100/7/4 101/7/4 107/7/4
f 101/2/4 102/2/4 108/2/4
f 107/7/4 101/7/4 108/7/4
f 103/2/4 104/2/4 109/2/4
f 104/2/4 105/2/4 109/2/4
f 109/2/4 105/2/4 110/2/4
f 105/9/4 106/9/4 111/9/4
f 110/2/4 105/2/4 111/2/4
f 111/9/4 106/9/4 112/9/4
f 88/2/4 107/2/4 113/2/4
f 107/8/4 108/8/4 113/8/4
f 108/2/4 102/2/4 114/2/4
f 113/8/4 108/8/4 114/8/4
f 102/5/4 103/5/4 115/5/4
f 114/2/4 102/2/4 115/2/4
f 103/2/4 109/2/4 116/2/4
f 115/5/4 103/5/4 116/5/4
f 109/3/4 110/3/4 117/3/4
f 116/2/4 109/2/4 117/2/4
f 111/6/4 112/6/4 118/6/4
f 117/3/4 110/3/4 118/3/4
f 110/6/4 111/6/4 118/6/4
f 118/6/4 112/6/4 119/6/4
f 119/6/4 112/6/4 120/6/4
f 113/4/4 114/4/4 121/4/4
f 115/2/4 116/2/4 121/2/4
f 116/2/4 117/2/4 121/2/4
f 114/2/4 115/2/4 121/2/4
f 121/2/4 117/2/4 122/2/4
f 118/9/4 119/9/4 123/9/4
f 122/2/4 117/2/4 123/2/4
f 117/9/4 118/9/4 123/9/4
f 123/9/4 119/9/4 124/9/4
f 88/2/4 113/2/4 125/2/4
f 121/4/4 122/4/4 126/4/4
f 125/2/4 113/2/4 126/2/4
f 113/4/4 121/4/4 126/4/4
f 126/4/4 122/4/4 127/4/4
f 122/2/4 123/2/4 128/2/4
f 127/4/4 122/4/4 128/4/4
f 123/6/4 124/6/4 129/6/4
f 128/2/4 123/2/4 129/2/4
f 129/6/4 124/6/4 130/6/4
f 125/1/4 126/1/4 131/1/4
f 126/2/4 127/2/4 132/2/4
f 131/1/4 126/1/4 132/1/4
f 127/1/4 128/1/4 133/1/4
f 132/2/4 127/2/4 133/2/4
f 133/1/4 128/1/4 134/1/4
f 139/1/5 136/1/5 135/1/5
f 140/2/5 137/2/5 136/2/5
f 140/1/5 136/1/5 139/1/5
f 141/1/5 138/1/5 137/1/5
f 141/2/5 137/2/5 140/2/5
f 142/1/5 138/1/5 141/1/5
f 143/1/6 144/1/6 147/1/6
f 147/1/6 144/1/6 148/1/6
f 145/1/6 146/1/6 149/1/6
f 149/1/6 146/1/6 150/1/6
f 151/9/6 152/9/6 154/9/6
f 152/6/6 153/6/6 155/6/6
f 154/9/6 152/9/6 155/9/6
f 155/6/6 153/6/6 156/6/6
f 157/9/6 158/9/6 162/9/6
f 158/6/6 159/6/6 163/6/6
f 162/9/6 158/9/6 163/9/6
f 159/9/6 160/9/6 164/9/6
f 163/6/6 159/6/6 164/6/6
f 160/6/6 161/6/6 165/6/6
f 164/9/6 160/9/6 165/9/6
f 165/6/6 161/6/6 166/6/6
