# MagicaVoxel @ Ephtracy

# material
mtllib tom.mtl
usemtl palette

# normals
vn -1 0 0
vn 1 0 0
vn 0 0 1
vn 0 0 -1
vn 0 -1 0
vn 0 1 0

# texcoords
vt 0.00195313 0.5
vt 0.00585938 0.5
vt 0.00976563 0.5
vt 0.0136719 0.5

# verts
v -8 23 6
v -8 23 3
v -8 24 3
v -8 24 2
v -8 26 6
v -8 26 2
v -7 5 6
v -7 5 -6
v -7 22 6
v -7 22 3
v -7 23 7
v -7 23 6
v -7 23 3
v -7 24 3
v -7 24 2
v -7 26 7
v -7 26 6
v -7 26 2
v -7 27 6
v -7 27 2
v -7 27 -6
v -6 3 5
v -6 3 -5
v -6 5 5
v -6 5 -5
v -6 24 8
v -6 24 7
v -6 26 8
v -6 26 7
v -6 26 6
v -6 27 7
v -6 27 6
v -6 27 3
v -6 27 2
v -6 27 -5
v -6 28 6
v -6 28 3
v -6 28 -5
v -5 2 4
v -5 2 -4
v -5 3 4
v -5 3 -4
v -5 28 4
v -5 28 3
v -5 28 -4
v -5 29 4
v -5 29 -4
v -4 1 3
v -4 1 -3
v -4 2 3
v -4 2 -3
v -4 29 3
v -4 29 -3
v -4 30 3
v -4 30 -3
v -2 0 2
v -2 0 -2
v -2 1 2
v -2 1 -2
v -2 19 7
v -2 19 6
v -2 20 7
v -2 20 6
v -2 22 7
v -2 22 6
v -2 30 2
v -2 30 -2
v -2 31 2
v -2 31 -2
v -1 10 6
v -1 10 5
v -1 11 6
v -1 11 5
v -1 18 7
v -1 18 6
v -1 19 7
v -1 19 6
v -1 22 7
v -1 22 6
v -1 24 7
v -1 24 6
v 2 14 6
v 2 14 5
v 2 15 6
v 2 15 5
v 2 19 2
v 2 19 1
v 2 20 2
v 2 20 1
v 3 10 6
v 3 10 5
v 3 14 6
v 3 14 5
v 3 24 7
v 3 24 6
v 3 26 7
v 3 26 6
v 4 23 7
v 4 23 6
v 4 24 8
v 4 24 7
v 4 24 6
v 4 26 8
v 4 26 7
v 4 26 6
v 4 27 7
v 4 27 6
v 4 27 5
v 4 28 6
v 4 28 5
v -4 23 7
v -4 23 6
v -4 24 8
v -4 24 7
v -4 24 6
v -4 26 8
v -4 26 7
v -4 26 6
v -4 27 7
v -4 27 6
v -4 27 5
v -4 28 6
v -4 28 5
v -3 10 6
v -3 10 5
v -3 14 6
v -3 14 5
v -3 24 7
v -3 24 6
v -3 26 7
v -3 26 6
v -2 14 6
v -2 14 5
v -2 15 6
v -2 15 5
v 1 10 6
v 1 10 5
v 1 11 6
v 1 11 5
v 1 18 7
v 1 18 6
v 1 19 7
v 1 19 6
v 1 19 2
v 1 19 1
v 1 20 2
v 1 20 1
v 1 22 7
v 1 22 6
v 1 24 7
v 1 24 6
v 2 0 2
v 2 0 -2
v 2 1 2
v 2 1 -2
v 2 19 7
v 2 19 6
v 2 20 7
v 2 20 6
v 2 22 7
v 2 22 6
v 2 30 2
v 2 30 -2
v 2 31 2
v 2 31 -2
v 4 1 3
v 4 1 -3
v 4 2 3
v 4 2 -3
v 4 29 3
v 4 29 -3
v 4 30 3
v 4 30 -3
v 5 2 4
v 5 2 -4
v 5 3 4
v 5 3 -4
v 5 28 4
v 5 28 2
v 5 28 -4
v 5 29 4
v 5 29 -4
v 6 3 5
v 6 3 -5
v 6 5 5
v 6 5 -5
v 6 24 8
v 6 24 7
v 6 26 8
v 6 26 7
v 6 26 6
v 6 27 7
v 6 27 6
v 6 27 2
v 6 27 -5
v 6 28 6
v 6 28 2
v 6 28 -5
v 7 5 6
v 7 5 -6
v 7 22 6
v 7 22 3
v 7 23 7
v 7 23 6
v 7 23 3
v 7 23 2
v 7 24 3
v 7 24 2
v 7 26 7
v 7 26 6
v 7 26 2
v 7 27 6
v 7 27 2
v 7 27 -6
v 8 23 6
v 8 23 3
v 8 24 3
v 8 24 2
v 8 26 6
v 8 26 2
v -6 24 8
v -6 26 8
v -4 24 8
v -4 26 8
v 4 24 8
v 4 26 8
v 6 24 8
v 6 26 8
v -7 23 7
v -7 26 7
v -6 24 7
v -6 26 7
v -6 27 7
v -4 23 7
v -4 24 7
v -4 26 7
v -4 27 7
v -3 24 7
v -3 26 7
v -2 19 7
v -2 20 7
v -2 22 7
v -1 18 7
v -1 19 7
v -1 20 7
v -1 22 7
v -1 24 7
v 1 18 7
v 1 19 7
v 1 20 7
v 1 22 7
v 1 24 7
v 2 19 7
v 2 20 7
v 2 22 7
v 3 24 7
v 3 26 7
v 4 23 7
v 4 24 7
v 4 26 7
v 4 27 7
v 6 24 7
v 6 26 7
v 6 27 7
v 7 23 7
v 7 26 7
v -8 23 6
v -8 26 6
v -7 5 6
v -7 22 6
v -7 23 6
v -7 26 6
v -7 27 6
v -6 26 6
v -6 27 6
v -6 28 6
v -4 22 6
v -4 23 6
v -4 24 6
v -4 26 6
v -4 27 6
v -4 28 6
v -3 10 6
v -3 14 6
v -3 23 6
v -3 24 6
v -3 26 6
v -3 27 6
v -2 14 6
v -2 15 6
v -2 19 6
v -2 20 6
v -2 22 6
v -2 24 6
v -2 26 6
v -1 10 6
v -1 11 6
v -1 18 6
v -1 19 6
v -1 22 6
v -1 24 6
v 1 10 6
v 1 11 6
v 1 18 6
v 1 19 6
v 1 22 6
v 1 24 6
v 2 14 6
v 2 15 6
v 2 19 6
v 2 20 6
v 2 22 6
v 2 24 6
v 2 26 6
v 3 10 6
v 3 14 6
v 3 23 6
v 3 24 6
v 3 26 6
v 3 27 6
v 4 22 6
v 4 23 6
v 4 24 6
v 4 26 6
v 4 27 6
v 4 28 6
v 6 26 6
v 6 27 6
v 6 28 6
v 7 5 6
v 7 22 6
v 7 23 6
v 7 26 6
v 7 27 6
v 8 23 6
v 8 26 6
v -6 3 5
v -6 5 5
v -4 27 5
v -4 28 5
v -3 10 5
v -3 14 5
v -3 27 5
v -2 14 5
v -2 15 5
v -1 10 5
v -1 11 5
v 1 10 5
v 1 11 5
v 2 14 5
v 2 15 5
v 3 10 5
v 3 14 5
v 3 27 5
v 4 27 5
v 4 28 5
v 6 3 5
v 6 5 5
v -5 2 4
v -5 3 4
v -5 28 4
v -5 29 4
v -4 28 4
v 4 28 4
v 5 2 4
v 5 3 4
v 5 28 4
v 5 29 4
v -4 1 3
v -4 2 3
v -4 29 3
v -4 30 3
v 4 1 3
v 4 2 3
v 4 29 3
v 4 30 3
v -2 0 2
v -2 1 2
v -2 30 2
v -2 31 2
v 2 0 2
v 2 1 2
v 2 30 2
v 2 31 2
v 1 19 1
v 1 20 1
v 2 19 1
v 2 20 1
v -8 23 3
v -8 24 3
v -7 23 3
v -7 24 3
v 7 23 3
v 7 24 3
v 8 23 3
v 8 24 3
v -8 24 2
v -8 26 2
v -7 24 2
v -7 26 2
v 1 19 2
v 1 20 2
v 2 19 2
v 2 20 2
v 7 24 2
v 7 26 2
v 8 24 2
v 8 26 2
v -2 0 -2
v -2 1 -2
v -2 30 -2
v -2 31 -2
v 2 0 -2
v 2 1 -2
v 2 30 -2
v 2 31 -2
v -4 1 -3
v -4 2 -3
v -4 29 -3
v -4 30 -3
v 4 1 -3
v 4 2 -3
v 4 29 -3
v 4 30 -3
v -5 2 -4
v -5 3 -4
v -5 28 -4
v -5 29 -4
v 5 2 -4
v 5 3 -4
v 5 28 -4
v 5 29 -4
v -6 3 -5
v -6 5 -5
v -6 27 -5
v -6 28 -5
v 6 3 -5
v 6 5 -5
v 6 27 -5
v 6 28 -5
v -7 5 -6
v -7 27 -6
v 7 5 -6
v 7 27 -6
v -2 0 2
v 2 0 2
v -2 0 -2
v 2 0 -2
v -4 1 3
v 4 1 3
v -2 1 2
v 2 1 2
v -2 1 -2
v 2 1 -2
v -4 1 -3
v 4 1 -3
v -5 2 4
v 5 2 4
v -4 2 3
v 4 2 3
v -4 2 -3
v 4 2 -3
v -5 2 -4
v 5 2 -4
v -6 3 5
v 6 3 5
v -5 3 4
v 5 3 4
v -5 3 -4
v 5 3 -4
v -6 3 -5
v 6 3 -5
v -7 5 6
v 7 5 6
v -6 5 5
v 6 5 5
v -6 5 -5
v 6 5 -5
v -7 5 -6
v 7 5 -6
v -3 14 6
v -2 14 6
v 2 14 6
v 3 14 6
v -3 14 5
v -2 14 5
v 2 14 5
v 3 14 5
v -2 15 6
v 2 15 6
v -2 15 5
v 2 15 5
v -1 18 7
v 1 18 7
v -1 18 6
v 1 18 6
v -2 19 7
v -1 19 7
v 1 19 7
v 2 19 7
v -2 19 6
v -1 19 6
v 1 19 6
v 2 19 6
v 1 20 2
v 2 20 2
v 1 20 1
v 2 20 1
v -7 23 7
v -4 23 7
v 4 23 7
v 7 23 7
v -8 23 6
v -7 23 6
v -4 23 6
v 4 23 6
v 7 23 6
v 8 23 6
v -8 23 3
v -7 23 3
v 7 23 3
v 8 23 3
v -6 24 8
v -4 24 8
v 4 24 8
v 6 24 8
v -6 24 7
v -4 24 7
v -3 24 7
v 3 24 7
v 4 24 7
v 6 24 7
v -4 24 6
v -3 24 6
v 3 24 6
v 4 24 6
v -8 24 3
v -7 24 3
v 7 24 3
v 8 24 3
v -8 24 2
v -7 24 2
v 7 24 2
v 8 24 2
v -3 10 6
v -1 10 6
v 1 10 6
v 3 10 6
v -3 10 5
v -1 10 5
v 1 10 5
v 3 10 5
v -1 11 6
v 1 11 6
v -1 11 5
v 1 11 5
v 1 19 2
v 2 19 2
v 1 19 1
v 2 19 1
v -2 22 7
v -1 22 7
v 1 22 7
v 2 22 7
v -2 22 6
v -1 22 6
v 1 22 6
v 2 22 6
v -1 24 7
v 1 24 7
v -1 24 6
v 1 24 6
v -6 26 8
v -4 26 8
v 4 26 8
v 6 26 8
v -7 26 7
v -6 26 7
v -4 26 7
v -3 26 7
v 3 26 7
v 4 26 7
v 6 26 7
v 7 26 7
v -8 26 6
v -7 26 6
v -6 26 6
v -4 26 6
v -3 26 6
v 3 26 6
v 4 26 6
v 6 26 6
v 7 26 6
v 8 26 6
v -8 26 2
v -7 26 2
v 7 26 2
v 8 26 2
v -6 27 7
v -4 27 7
v 4 27 7
v 6 27 7
v -7 27 6
v -6 27 6
v -4 27 6
v -3 27 6
v 3 27 6
v 4 27 6
v 6 27 6
v 7 27 6
v -4 27 5
v -3 27 5
v 3 27 5
v 4 27 5
v -6 27 3
v -7 27 2
v -6 27 2
v 6 27 2
v 7 27 2
v -6 27 -5
v 6 27 -5
v -7 27 -6
v 7 27 -6
v -6 28 6
v -4 28 6
v 4 28 6
v 6 28 6
v -4 28 5
v 4 28 5
v -5 28 4
v -4 28 4
v 4 28 4
v 5 28 4
v -6 28 3
v -5 28 3
v 5 28 2
v 6 28 2
v -5 28 -4
v 5 28 -4
v -6 28 -5
v 6 28 -5
v -5 29 4
v 5 29 4
v -4 29 3
v 4 29 3
v -4 29 -3
v 4 29 -3
v -5 29 -4
v 5 29 -4
v -4 30 3
v 4 30 3
v -2 30 2
v 2 30 2
v -2 30 -2
v 2 30 -2
v -4 30 -3
v 4 30 -3
v -2 31 2
v 2 31 2
v -2 31 -2
v 2 31 -2

# faces
f 3/4/1 2/4/1 1/4/1
f 5/4/1 3/4/1 1/4/1
f 5/4/1 4/4/1 3/4/1
f 6/4/1 4/4/1 5/4/1
f 9/3/1 8/3/1 7/3/1
f 10/3/1 8/3/1 9/3/1
f 12/4/1 10/4/1 9/4/1
f 13/3/1 8/3/1 10/3/1
f 13/4/1 10/4/1 12/4/1
f 14/3/1 8/3/1 13/3/1
f 15/3/1 8/3/1 14/3/1
f 16/4/1 12/4/1 11/4/1
f 17/4/1 12/4/1 16/4/1
f 18/3/1 8/3/1 15/3/1
f 19/4/1 18/4/1 17/4/1
f 20/3/1 8/3/1 18/3/1
f 20/4/1 18/4/1 19/4/1
f 21/3/1 8/3/1 20/3/1
f 24/3/1 23/3/1 22/3/1
f 25/3/1 23/3/1 24/3/1
f 28/4/1 27/4/1 26/4/1
f 29/4/1 27/4/1 28/4/1
f 31/4/1 30/4/1 29/4/1
f 32/4/1 30/4/1 31/4/1
f 36/4/1 33/4/1 32/4/1
f 37/3/1 35/3/1 34/3/1
f 37/4/1 33/4/1 36/4/1
f 37/3/1 34/3/1 33/3/1
f 38/3/1 35/3/1 37/3/1
f 41/3/1 40/3/1 39/3/1
f 42/3/1 40/3/1 41/3/1
f 46/3/1 44/3/1 43/3/1
f 46/3/1 45/3/1 44/3/1
f 47/3/1 45/3/1 46/3/1
f 50/3/1 49/3/1 48/3/1
f 51/3/1 49/3/1 50/3/1
f 54/3/1 53/3/1 52/3/1
f 55/3/1 53/3/1 54/3/1
f 58/3/1 57/3/1 56/3/1
f 59/3/1 57/3/1 58/3/1
f 62/2/1 61/2/1 60/2/1
f 63/2/1 61/2/1 62/2/1
f 64/1/1 63/1/1 62/1/1
f 65/1/1 63/1/1 64/1/1
f 68/3/1 67/3/1 66/3/1
f 69/3/1 67/3/1 68/3/1
f 72/3/1 71/3/1 70/3/1
f 73/3/1 71/3/1 72/3/1
f 76/2/1 75/2/1 74/2/1
f 77/2/1 75/2/1 76/2/1
f 80/3/1 79/3/1 78/3/1
f 81/3/1 79/3/1 80/3/1
f 84/3/1 83/3/1 82/3/1
f 85/3/1 83/3/1 84/3/1
f 88/3/1 87/3/1 86/3/1
f 89/3/1 87/3/1 88/3/1
f 92/3/1 91/3/1 90/3/1
f 93/3/1 91/3/1 92/3/1
f 96/4/1 95/4/1 94/4/1
f 97/4/1 95/4/1 96/4/1
f 101/4/1 99/4/1 98/4/1
f 102/4/1 99/4/1 101/4/1
f 103/4/1 101/4/1 100/4/1
f 104/4/1 101/4/1 103/4/1
f 106/4/1 105/4/1 104/4/1
f 107/4/1 105/4/1 106/4/1
f 109/4/1 108/4/1 107/4/1
f 110/4/1 108/4/1 109/4/1
f 111/4/2 112/4/2 114/4/2
f 114/4/2 112/4/2 115/4/2
f 113/4/2 114/4/2 116/4/2
f 116/4/2 114/4/2 117/4/2
f 117/4/2 118/4/2 119/4/2
f 119/4/2 118/4/2 120/4/2
f 120/4/2 121/4/2 122/4/2
f 122/4/2 121/4/2 123/4/2
f 124/3/2 125/3/2 126/3/2
f 126/3/2 125/3/2 127/3/2
f 128/4/2 129/4/2 130/4/2
f 130/4/2 129/4/2 131/4/2
f 132/3/2 133/3/2 134/3/2
f 134/3/2 133/3/2 135/3/2
f 136/3/2 137/3/2 138/3/2
f 138/3/2 137/3/2 139/3/2
f 140/2/2 141/2/2 142/2/2
f 142/2/2 141/2/2 143/2/2
f 144/2/2 145/2/2 146/2/2
f 146/2/2 145/2/2 147/2/2
f 148/3/2 149/3/2 150/3/2
f 150/3/2 149/3/2 151/3/2
f 152/3/2 153/3/2 154/3/2
f 154/3/2 153/3/2 155/3/2
f 156/2/2 157/2/2 158/2/2
f 158/2/2 157/2/2 159/2/2
f 158/1/2 159/1/2 160/1/2
f 160/1/2 159/1/2 161/1/2
f 162/3/2 163/3/2 164/3/2
f 164/3/2 163/3/2 165/3/2
f 166/3/2 167/3/2 168/3/2
f 168/3/2 167/3/2 169/3/2
f 170/3/2 171/3/2 172/3/2
f 172/3/2 171/3/2 173/3/2
f 174/3/2 175/3/2 176/3/2
f 176/3/2 175/3/2 177/3/2
f 178/3/2 179/3/2 181/3/2
f 179/3/2 180/3/2 181/3/2
f 181/3/2 180/3/2 182/3/2
f 183/3/2 184/3/2 185/3/2
f 185/3/2 184/3/2 186/3/2
f 187/4/2 188/4/2 189/4/2
f 189/4/2 188/4/2 190/4/2
f 190/4/2 191/4/2 192/4/2
f 192/4/2 191/4/2 193/4/2
f 193/4/2 194/4/2 196/4/2
f 194/3/2 195/3/2 197/3/2
f 196/4/2 194/4/2 197/4/2
f 197/3/2 195/3/2 198/3/2
f 199/3/2 200/3/2 201/3/2
f 201/3/2 200/3/2 202/3/2
f 201/4/2 202/4/2 204/4/2
f 202/3/2 200/3/2 205/3/2
f 204/4/2 202/4/2 205/4/2
f 205/3/2 200/3/2 206/3/2
f 205/4/2 206/4/2 207/4/2
f 206/3/2 200/3/2 208/3/2
f 207/4/2 206/4/2 208/4/2
f 203/4/2 204/4/2 209/4/2
f 209/4/2 204/4/2 210/4/2
f 208/3/2 200/3/2 211/3/2
f 210/4/2 211/4/2 212/4/2
f 211/3/2 200/3/2 213/3/2
f 212/4/2 211/4/2 213/4/2
f 213/3/2 200/3/2 214/3/2
f 215/4/2 216/4/2 217/4/2
f 215/4/2 217/4/2 219/4/2
f 217/4/2 218/4/2 219/4/2
f 219/4/2 218/4/2 220/4/2
f 223/4/3 222/4/3 221/4/3
f 224/4/3 222/4/3 223/4/3
f 227/4/3 226/4/3 225/4/3
f 228/4/3 226/4/3 227/4/3
f 231/4/3 230/4/3 229/4/3
f 232/4/3 230/4/3 231/4/3
f 234/4/3 231/4/3 229/4/3
f 235/4/3 231/4/3 234/4/3
f 236/4/3 233/4/3 232/4/3
f 237/4/3 233/4/3 236/4/3
f 238/4/3 236/4/3 235/4/3
f 239/4/3 236/4/3 238/4/3
f 244/2/3 241/2/3 240/2/3
f 245/1/3 242/1/3 241/1/3
f 245/2/3 241/2/3 244/2/3
f 246/1/3 242/1/3 245/1/3
f 248/2/3 244/2/3 243/2/3
f 249/3/3 247/3/3 246/3/3
f 249/2/3 244/2/3 248/2/3
f 249/3/3 245/3/3 244/3/3
f 249/3/3 246/3/3 245/3/3
f 250/3/3 247/3/3 249/3/3
f 251/3/3 247/3/3 250/3/3
f 252/3/3 247/3/3 251/3/3
f 253/2/3 250/2/3 249/2/3
f 254/1/3 251/1/3 250/1/3
f 254/2/3 250/2/3 253/2/3
f 255/1/3 251/1/3 254/1/3
f 259/4/3 257/4/3 256/4/3
f 260/4/3 257/4/3 259/4/3
f 262/4/3 259/4/3 258/4/3
f 263/4/3 261/4/3 260/4/3
f 264/4/3 261/4/3 263/4/3
f 265/4/3 262/4/3 258/4/3
f 265/4/3 263/4/3 262/4/3
f 266/4/3 263/4/3 265/4/3
f 271/4/3 268/4/3 267/4/3
f 272/4/3 268/4/3 271/4/3
f 274/4/3 273/4/3 272/4/3
f 275/4/3 273/4/3 274/4/3
f 277/3/3 270/3/3 269/3/3
f 277/4/3 271/4/3 270/4/3
f 278/4/3 271/4/3 277/4/3
f 281/4/3 276/4/3 275/4/3
f 282/4/3 276/4/3 281/4/3
f 283/3/3 277/3/3 269/3/3
f 283/3/3 278/3/3 277/3/3
f 284/3/3 278/3/3 283/3/3
f 285/4/3 279/4/3 278/4/3
f 285/3/3 278/3/3 284/3/3
f 286/4/3 279/4/3 285/4/3
f 287/4/3 281/4/3 280/4/3
f 288/4/3 281/4/3 287/4/3
f 289/3/3 286/3/3 285/3/3
f 289/3/3 285/3/3 284/3/3
f 290/3/3 286/3/3 289/3/3
f 291/3/3 286/3/3 290/3/3
f 292/3/3 286/3/3 291/3/3
f 293/3/3 286/3/3 292/3/3
f 294/4/3 287/4/3 286/4/3
f 294/3/3 286/3/3 293/3/3
f 295/3/3 288/3/3 287/3/3
f 295/4/3 287/4/3 294/4/3
f 296/3/3 283/3/3 269/3/3
f 298/3/3 291/3/3 290/3/3
f 299/3/3 291/3/3 298/3/3
f 300/3/3 294/3/3 293/3/3
f 300/3/3 295/3/3 294/3/3
f 301/3/3 295/3/3 300/3/3
f 302/3/3 297/3/3 296/3/3
f 302/3/3 296/3/3 269/3/3
f 303/3/3 297/3/3 302/3/3
f 304/3/3 298/3/3 290/3/3
f 307/3/3 295/3/3 301/3/3
f 309/3/3 305/3/3 304/3/3
f 309/3/3 304/3/3 290/3/3
f 310/3/3 305/3/3 309/3/3
f 312/3/3 307/3/3 306/3/3
f 313/3/3 295/3/3 307/3/3
f 313/3/3 307/3/3 312/3/3
f 314/3/3 288/3/3 295/3/3
f 314/3/3 295/3/3 313/3/3
f 315/3/3 302/3/3 269/3/3
f 316/3/3 312/3/3 311/3/3
f 316/3/3 313/3/3 312/3/3
f 316/3/3 311/3/3 310/3/3
f 316/3/3 309/3/3 308/3/3
f 316/3/3 310/3/3 309/3/3
f 317/3/3 313/3/3 316/3/3
f 318/4/3 314/4/3 313/4/3
f 318/3/3 313/3/3 317/3/3
f 319/3/3 288/3/3 314/3/3
f 319/4/3 314/4/3 318/4/3
f 320/3/3 288/3/3 319/3/3
f 321/3/3 317/3/3 316/3/3
f 321/3/3 316/3/3 315/3/3
f 322/4/3 318/4/3 317/4/3
f 322/3/3 317/3/3 321/3/3
f 323/4/3 318/4/3 322/4/3
f 324/4/3 320/4/3 319/4/3
f 325/4/3 320/4/3 324/4/3
f 328/4/3 326/4/3 325/4/3
f 329/4/3 326/4/3 328/4/3
f 330/3/3 315/3/3 269/3/3
f 330/3/3 321/3/3 315/3/3
f 331/4/3 322/4/3 321/4/3
f 331/3/3 321/3/3 330/3/3
f 332/4/3 322/4/3 331/4/3
f 333/4/3 328/4/3 327/4/3
f 334/4/3 328/4/3 333/4/3
f 335/4/3 333/4/3 332/4/3
f 336/4/3 333/4/3 335/4/3
f 343/3/3 340/3/3 339/3/3
f 344/2/3 342/2/3 341/2/3
f 346/2/3 344/2/3 341/2/3
f 346/2/3 345/2/3 344/2/3
f 347/2/3 345/2/3 346/2/3
f 349/2/3 345/2/3 347/2/3
f 350/2/3 345/2/3 349/2/3
f 350/2/3 349/2/3 348/2/3
f 351/2/3 345/2/3 350/2/3
f 352/2/3 350/2/3 348/2/3
f 353/2/3 350/2/3 352/2/3
f 354/3/3 340/3/3 343/3/3
f 355/3/3 340/3/3 354/3/3
f 356/3/3 340/3/3 355/3/3
f 357/3/3 338/3/3 337/3/3
f 358/3/3 338/3/3 357/3/3
f 363/3/3 362/3/3 361/3/3
f 364/3/3 362/3/3 363/3/3
f 365/3/3 360/3/3 359/3/3
f 366/3/3 360/3/3 365/3/3
f 367/3/3 362/3/3 364/3/3
f 368/3/3 362/3/3 367/3/3
f 373/3/3 370/3/3 369/3/3
f 374/3/3 370/3/3 373/3/3
f 375/3/3 372/3/3 371/3/3
f 376/3/3 372/3/3 375/3/3
f 381/3/3 378/3/3 377/3/3
f 382/3/3 378/3/3 381/3/3
f 383/3/3 380/3/3 379/3/3
f 384/3/3 380/3/3 383/3/3
f 387/2/3 386/2/3 385/2/3
f 388/2/3 386/2/3 387/2/3
f 389/4/4 390/4/4 391/4/4
f 391/4/4 390/4/4 392/4/4
f 393/4/4 394/4/4 395/4/4
f 395/4/4 394/4/4 396/4/4
f 397/4/4 398/4/4 399/4/4
f 399/4/4 398/4/4 400/4/4
f 401/2/4 402/2/4 403/2/4
f 403/2/4 402/2/4 404/2/4
f 405/4/4 406/4/4 407/4/4
f 407/4/4 406/4/4 408/4/4
f 409/3/4 410/3/4 413/3/4
f 413/3/4 410/3/4 414/3/4
f 411/3/4 412/3/4 415/3/4
f 415/3/4 412/3/4 416/3/4
f 417/3/4 418/3/4 421/3/4
f 421/3/4 418/3/4 422/3/4
f 419/3/4 420/3/4 423/3/4
f 423/3/4 420/3/4 424/3/4
f 425/3/4 426/3/4 429/3/4
f 429/3/4 426/3/4 430/3/4
f 427/3/4 428/3/4 431/3/4
f 431/3/4 428/3/4 432/3/4
f 433/3/4 434/3/4 437/3/4
f 437/3/4 434/3/4 438/3/4
f 435/3/4 436/3/4 439/3/4
f 439/3/4 436/3/4 440/3/4
f 441/3/4 442/3/4 443/3/4
f 443/3/4 442/3/4 444/3/4
f 447/3/5 446/3/5 445/3/5
f 448/3/5 446/3/5 447/3/5
f 451/3/5 450/3/5 449/3/5
f 452/3/5 450/3/5 451/3/5
f 453/3/5 451/3/5 449/3/5
f 454/3/5 450/3/5 452/3/5
f 455/3/5 453/3/5 449/3/5
f 455/3/5 454/3/5 453/3/5
f 456/3/5 450/3/5 454/3/5
f 456/3/5 454/3/5 455/3/5
f 459/3/5 458/3/5 457/3/5
f 460/3/5 458/3/5 459/3/5
f 461/3/5 459/3/5 457/3/5
f 462/3/5 458/3/5 460/3/5
f 463/3/5 461/3/5 457/3/5
f 463/3/5 462/3/5 461/3/5
f 464/3/5 458/3/5 462/3/5
f 464/3/5 462/3/5 463/3/5
f 467/3/5 466/3/5 465/3/5
f 468/3/5 466/3/5 467/3/5
f 469/3/5 467/3/5 465/3/5
f 470/3/5 466/3/5 468/3/5
f 471/3/5 469/3/5 465/3/5
f 471/3/5 470/3/5 469/3/5
f 472/3/5 466/3/5 470/3/5
f 472/3/5 470/3/5 471/3/5
f 475/3/5 474/3/5 473/3/5
f 476/3/5 474/3/5 475/3/5
f 477/3/5 475/3/5 473/3/5
f 478/3/5 474/3/5 476/3/5
f 479/3/5 477/3/5 473/3/5
f 479/3/5 478/3/5 477/3/5
f 480/3/5 474/3/5 478/3/5
f 480/3/5 478/3/5 479/3/5
f 485/3/5 482/3/5 481/3/5
f 486/3/5 482/3/5 485/3/5
f 487/3/5 484/3/5 483/3/5
f 488/3/5 484/3/5 487/3/5
f 491/3/5 490/3/5 489/3/5
f 492/3/5 490/3/5 491/3/5
f 495/2/5 494/2/5 493/2/5
f 496/2/5 494/2/5 495/2/5
f 501/2/5 498/2/5 497/2/5
f 502/2/5 498/2/5 501/2/5
f 503/2/5 500/2/5 499/2/5
f 504/2/5 500/2/5 503/2/5
f 507/1/5 506/1/5 505/1/5
f 508/1/5 506/1/5 507/1/5
f 514/4/5 510/4/5 509/4/5
f 515/4/5 510/4/5 514/4/5
f 516/4/5 512/4/5 511/4/5
f 517/4/5 512/4/5 516/4/5
f 519/4/5 514/4/5 513/4/5
f 520/4/5 514/4/5 519/4/5
f 521/4/5 518/4/5 517/4/5
f 522/4/5 518/4/5 521/4/5
f 527/4/5 524/4/5 523/4/5
f 528/4/5 524/4/5 527/4/5
f 531/4/5 526/4/5 525/4/5
f 532/4/5 526/4/5 531/4/5
f 533/4/5 529/4/5 528/4/5
f 534/4/5 529/4/5 533/4/5
f 535/4/5 531/4/5 530/4/5
f 536/4/5 531/4/5 535/4/5
f 541/4/5 538/4/5 537/4/5
f 542/4/5 538/4/5 541/4/5
f 543/4/5 540/4/5 539/4/5
f 544/4/5 540/4/5 543/4/5
f 545/3/6 546/3/6 549/3/6
f 549/3/6 546/3/6 550/3/6
f 547/3/6 548/3/6 551/3/6
f 551/3/6 548/3/6 552/3/6
f 553/3/6 554/3/6 555/3/6
f 555/3/6 554/3/6 556/3/6
f 557/3/6 558/3/6 559/3/6
f 559/3/6 558/3/6 560/3/6
f 561/1/6 562/1/6 565/1/6
f 565/1/6 562/1/6 566/1/6
f 563/1/6 564/1/6 567/1/6
f 567/1/6 564/1/6 568/1/6
f 569/3/6 570/3/6 571/3/6
f 571/3/6 570/3/6 572/3/6
f 573/4/6 574/4/6 578/4/6
f 578/4/6 574/4/6 579/4/6
f 575/4/6 576/4/6 582/4/6
f 582/4/6 576/4/6 583/4/6
f 577/4/6 578/4/6 586/4/6
f 586/4/6 578/4/6 587/4/6
f 579/4/6 580/4/6 588/4/6
f 588/4/6 580/4/6 589/4/6
f 581/4/6 582/4/6 590/4/6
f 590/4/6 582/4/6 591/4/6
f 583/4/6 584/4/6 592/4/6
f 592/4/6 584/4/6 593/4/6
f 585/4/6 586/4/6 595/4/6
f 595/4/6 586/4/6 596/4/6
f 593/4/6 594/4/6 597/4/6
f 597/4/6 594/4/6 598/4/6
f 599/4/6 600/4/6 604/4/6
f 604/4/6 600/4/6 605/4/6
f 601/4/6 602/4/6 608/4/6
f 608/4/6 602/4/6 609/4/6
f 605/4/6 606/4/6 611/4/6
f 606/3/6 607/3/6 612/3/6
f 611/4/6 606/4/6 612/4/6
f 607/4/6 608/4/6 613/4/6
f 612/3/6 607/3/6 613/3/6
f 613/4/6 608/4/6 614/4/6
f 603/4/6 604/4/6 615/4/6
f 603/4/6 615/4/6 616/4/6
f 616/4/6 615/4/6 617/4/6
f 609/4/6 610/4/6 618/4/6
f 618/4/6 610/4/6 619/4/6
f 616/3/6 617/3/6 620/3/6
f 618/3/6 619/3/6 621/3/6
f 616/3/6 620/3/6 622/3/6
f 620/3/6 621/3/6 622/3/6
f 621/3/6 619/3/6 623/3/6
f 622/3/6 621/3/6 623/3/6
f 624/4/6 625/4/6 628/4/6
f 626/4/6 627/4/6 629/4/6
f 624/4/6 628/4/6 630/4/6
f 628/3/6 629/3/6 631/3/6
f 630/4/6 628/4/6 631/4/6
f 629/4/6 627/4/6 632/4/6
f 631/3/6 629/3/6 632/3/6
f 632/4/6 627/4/6 633/4/6
f 624/4/6 630/4/6 634/4/6
f 634/4/6 630/4/6 635/4/6
f 633/4/6 627/4/6 636/4/6
f 636/4/6 627/4/6 637/4/6
f 634/3/6 635/3/6 638/3/6
f 636/3/6 637/3/6 639/3/6
f 634/3/6 638/3/6 640/3/6
f 638/3/6 639/3/6 640/3/6
f 639/3/6 637/3/6 641/3/6
f 640/3/6 639/3/6 641/3/6
f 642/3/6 643/3/6 644/3/6
f 644/3/6 643/3/6 645/3/6
f 642/3/6 644/3/6 646/3/6
f 645/3/6 643/3/6 647/3/6
f 642/3/6 646/3/6 648/3/6
f 646/3/6 647/3/6 648/3/6
f 647/3/6 643/3/6 649/3/6
f 648/3/6 647/3/6 649/3/6
f 650/3/6 651/3/6 652/3/6
f 652/3/6 651/3/6 653/3/6
f 650/3/6 652/3/6 654/3/6
f 653/3/6 651/3/6 655/3/6
f 650/3/6 654/3/6 656/3/6
f 654/3/6 655/3/6 656/3/6
f 655/3/6 651/3/6 657/3/6
f 656/3/6 655/3/6 657/3/6
f 658/3/6 659/3/6 660/3/6
f 660/3/6 659/3/6 661/3/6
