# MagicaVoxel @ Ephtracy

# material
mtllib 5x5 dungeon Door Locked.mtl
usemtl palette

# normals
vn -1 0 0
vn 1 0 0
vn 0 0 1
vn 0 0 -1
vn 0 -1 0
vn 0 1 0

# texcoords
vt 0.00195313 0.5
vt 0.00585938 0.5
vt 0.00976563 0.5

# verts
v -8 0 2
v -8 0 -2
v -8 1 2
v -8 1 -2
v -8 32 2
v -8 32 -2
v 8 0 2
v 8 0 -2
v 8 1 2
v 8 1 -2
v 8 32 2
v 8 32 -2
v -8 0 2
v -8 1 2
v -8 32 2
v -6 1 2
v -6 30 2
v -5 1 2
v -5 29 2
v -2 17 2
v -2 19 2
v -1 13 2
v -1 17 2
v -1 19 2
v -1 20 2
v 1 13 2
v 1 17 2
v 1 19 2
v 1 20 2
v 2 17 2
v 2 19 2
v 5 1 2
v 5 29 2
v 6 1 2
v 6 30 2
v 8 0 2
v 8 1 2
v 8 32 2
v -8 0 -2
v -8 1 -2
v -8 32 -2
v -6 1 -2
v -6 30 -2
v -5 1 -2
v -5 29 -2
v -2 17 -2
v -2 19 -2
v -1 13 -2
v -1 17 -2
v -1 19 -2
v -1 20 -2
v 1 13 -2
v 1 17 -2
v 1 19 -2
v 1 20 -2
v 2 17 -2
v 2 19 -2
v 5 1 -2
v 5 29 -2
v 6 1 -2
v 6 30 -2
v 8 0 -2
v 8 1 -2
v 8 32 -2
v -8 0 2
v 8 0 2
v -8 0 -2
v 8 0 -2
v -8 32 2
v 8 32 2
v -8 32 -2
v 8 32 -2

# faces
f 3/1/1 2/1/1 1/1/1
f 4/1/1 2/1/1 3/1/1
f 5/2/1 4/2/1 3/2/1
f 6/2/1 4/2/1 5/2/1
f 7/1/2 8/1/2 9/1/2
f 9/1/2 8/1/2 10/1/2
f 9/2/2 10/2/2 11/2/2
f 11/2/2 10/2/2 12/2/2
f 16/1/3 14/1/3 13/1/3
f 16/2/3 15/2/3 14/2/3
f 17/2/3 15/2/3 16/2/3
f 18/1/3 16/1/3 13/1/3
f 18/3/3 17/3/3 16/3/3
f 19/3/3 17/3/3 18/3/3
f 20/2/3 19/2/3 18/2/3
f 21/2/3 19/2/3 20/2/3
f 22/2/3 20/2/3 18/2/3
f 23/1/3 21/1/3 20/1/3
f 23/2/3 20/2/3 22/2/3
f 24/2/3 19/2/3 21/2/3
f 24/1/3 21/1/3 23/1/3
f 25/2/3 19/2/3 24/2/3
f 26/1/3 23/1/3 22/1/3
f 26/2/3 22/2/3 18/2/3
f 26/1/3 25/1/3 24/1/3
f 26/1/3 24/1/3 23/1/3
f 27/1/3 25/1/3 26/1/3
f 28/1/3 25/1/3 27/1/3
f 29/2/3 19/2/3 25/2/3
f 29/1/3 25/1/3 28/1/3
f 30/1/3 28/1/3 27/1/3
f 30/2/3 27/2/3 26/2/3
f 31/2/3 29/2/3 28/2/3
f 31/1/3 28/1/3 30/1/3
f 32/1/3 18/1/3 13/1/3
f 32/2/3 26/2/3 18/2/3
f 32/2/3 31/2/3 30/2/3
f 32/2/3 30/2/3 26/2/3
f 33/2/3 29/2/3 31/2/3
f 33/2/3 31/2/3 32/2/3
f 33/3/3 17/3/3 19/3/3
f 33/2/3 19/2/3 29/2/3
f 34/1/3 32/1/3 13/1/3
f 34/3/3 33/3/3 32/3/3
f 35/2/3 15/2/3 17/2/3
f 35/3/3 33/3/3 34/3/3
f 35/3/3 17/3/3 33/3/3
f 36/1/3 34/1/3 13/1/3
f 37/2/3 35/2/3 34/2/3
f 37/1/3 34/1/3 36/1/3
f 38/2/3 15/2/3 35/2/3
f 38/2/3 35/2/3 37/2/3
f 39/1/4 40/1/4 42/1/4
f 40/2/4 41/2/4 42/2/4
f 42/2/4 41/2/4 43/2/4
f 39/1/4 42/1/4 44/1/4
f 42/3/4 43/3/4 44/3/4
f 44/3/4 43/3/4 45/3/4
f 44/2/4 45/2/4 46/2/4
f 46/2/4 45/2/4 47/2/4
f 44/2/4 46/2/4 48/2/4
f 46/1/4 47/1/4 49/1/4
f 48/2/4 46/2/4 49/2/4
f 47/2/4 45/2/4 50/2/4
f 49/1/4 47/1/4 50/1/4
f 50/2/4 45/2/4 51/2/4
f 48/1/4 49/1/4 52/1/4
f 44/2/4 48/2/4 52/2/4
f 50/1/4 51/1/4 52/1/4
f 49/1/4 50/1/4 52/1/4
f 52/1/4 51/1/4 53/1/4
f 53/1/4 51/1/4 54/1/4
f 51/2/4 45/2/4 55/2/4
f 54/1/4 51/1/4 55/1/4
f 53/1/4 54/1/4 56/1/4
f 52/2/4 53/2/4 56/2/4
f 54/2/4 55/2/4 57/2/4
f 56/1/4 54/1/4 57/1/4
f 39/1/4 44/1/4 58/1/4
f 44/2/4 52/2/4 58/2/4
f 56/2/4 57/2/4 58/2/4
f 52/2/4 56/2/4 58/2/4
f 57/2/4 55/2/4 59/2/4
f 58/2/4 57/2/4 59/2/4
f 45/3/4 43/3/4 59/3/4
f 55/2/4 45/2/4 59/2/4
f 39/1/4 58/1/4 60/1/4
f 58/3/4 59/3/4 60/3/4
f 43/2/4 41/2/4 61/2/4
f 60/3/4 59/3/4 61/3/4
f 59/3/4 43/3/4 61/3/4
f 39/1/4 60/1/4 62/1/4
f 60/2/4 61/2/4 63/2/4
f 62/1/4 60/1/4 63/1/4
f 61/2/4 41/2/4 64/2/4
f 63/2/4 61/2/4 64/2/4
f 67/1/5 66/1/5 65/1/5
f 68/1/5 66/1/5 67/1/5
f 69/2/6 70/2/6 71/2/6
f 71/2/6 70/2/6 72/2/6
