# MagicaVoxel @ Ephtracy

# material
mtllib 5x5 dungeon Door Monsterlock.mtl
usemtl palette

# normals
vn -1 0 0
vn 1 0 0
vn 0 0 1
vn 0 0 -1
vn 0 -1 0
vn 0 1 0

# texcoords
vt 0.00195313 0.5
vt 0.00585938 0.5
vt 0.00976563 0.5

# verts
v -8 0 2
v -8 0 -2
v -8 1 2
v -8 1 -2
v -8 32 2
v -8 32 -2
v 8 0 2
v 8 0 -2
v 8 1 2
v 8 1 -2
v 8 32 2
v 8 32 -2
v -8 0 2
v -8 1 2
v -8 32 2
v -7 0 2
v -7 1 2
v -7 2 2
v -7 17 2
v -7 20 2
v -6 0 2
v -6 1 2
v -6 2 2
v -6 3 2
v -6 16 2
v -6 17 2
v -6 20 2
v -6 21 2
v -5 1 2
v -5 2 2
v -5 3 2
v -5 4 2
v -5 20 2
v -5 21 2
v -4 1 2
v -4 2 2
v -4 3 2
v -4 4 2
v -4 15 2
v -4 16 2
v -4 17 2
v -4 19 2
v -4 20 2
v -3 0 2
v -3 1 2
v -3 2 2
v -3 3 2
v -3 14 2
v -3 15 2
v -3 18 2
v -3 19 2
v -2 0 2
v -2 1 2
v -2 2 2
v -2 3 2
v -2 13 2
v -2 14 2
v -2 15 2
v -2 16 2
v -2 17 2
v -2 18 2
v -1 1 2
v -1 2 2
v -1 3 2
v -1 4 2
v -1 13 2
v -1 15 2
v -1 17 2
v 1 1 2
v 1 2 2
v 1 3 2
v 1 4 2
v 1 13 2
v 1 15 2
v 1 17 2
v 2 0 2
v 2 1 2
v 2 2 2
v 2 3 2
v 2 13 2
v 2 14 2
v 2 15 2
v 2 16 2
v 2 17 2
v 2 18 2
v 3 0 2
v 3 1 2
v 3 2 2
v 3 3 2
v 3 14 2
v 3 15 2
v 3 18 2
v 3 19 2
v 4 1 2
v 4 2 2
v 4 3 2
v 4 4 2
v 4 15 2
v 4 16 2
v 4 17 2
v 4 19 2
v 4 20 2
v 5 1 2
v 5 2 2
v 5 3 2
v 5 4 2
v 5 20 2
v 5 21 2
v 6 0 2
v 6 1 2
v 6 2 2
v 6 3 2
v 6 16 2
v 6 17 2
v 6 20 2
v 6 21 2
v 7 0 2
v 7 1 2
v 7 2 2
v 7 17 2
v 7 20 2
v 8 0 2
v 8 1 2
v 8 32 2
v -8 0 -2
v -8 1 -2
v -8 32 -2
v -7 0 -2
v -7 1 -2
v -7 2 -2
v -7 17 -2
v -7 20 -2
v -6 0 -2
v -6 1 -2
v -6 2 -2
v -6 3 -2
v -6 16 -2
v -6 17 -2
v -6 20 -2
v -6 21 -2
v -5 1 -2
v -5 2 -2
v -5 3 -2
v -5 4 -2
v -5 20 -2
v -5 21 -2
v -4 1 -2
v -4 2 -2
v -4 3 -2
v -4 4 -2
v -4 15 -2
v -4 16 -2
v -4 17 -2
v -4 19 -2
v -4 20 -2
v -3 0 -2
v -3 1 -2
v -3 2 -2
v -3 3 -2
v -3 14 -2
v -3 15 -2
v -3 18 -2
v -3 19 -2
v -2 0 -2
v -2 1 -2
v -2 2 -2
v -2 3 -2
v -2 13 -2
v -2 14 -2
v -2 15 -2
v -2 16 -2
v -2 17 -2
v -2 18 -2
v -1 1 -2
v -1 2 -2
v -1 3 -2
v -1 4 -2
v -1 13 -2
v -1 15 -2
v -1 17 -2
v 1 1 -2
v 1 2 -2
v 1 3 -2
v 1 4 -2
v 1 13 -2
v 1 15 -2
v 1 17 -2
v 2 0 -2
v 2 1 -2
v 2 2 -2
v 2 3 -2
v 2 13 -2
v 2 14 -2
v 2 15 -2
v 2 16 -2
v 2 17 -2
v 2 18 -2
v 3 0 -2
v 3 1 -2
v 3 2 -2
v 3 3 -2
v 3 14 -2
v 3 15 -2
v 3 18 -2
v 3 19 -2
v 4 1 -2
v 4 2 -2
v 4 3 -2
v 4 4 -2
v 4 15 -2
v 4 16 -2
v 4 17 -2
v 4 19 -2
v 4 20 -2
v 5 1 -2
v 5 2 -2
v 5 3 -2
v 5 4 -2
v 5 20 -2
v 5 21 -2
v 6 0 -2
v 6 1 -2
v 6 2 -2
v 6 3 -2
v 6 16 -2
v 6 17 -2
v 6 20 -2
v 6 21 -2
v 7 0 -2
v 7 1 -2
v 7 2 -2
v 7 17 -2
v 7 20 -2
v 8 0 -2
v 8 1 -2
v 8 32 -2
v -8 0 2
v -7 0 2
v -6 0 2
v -3 0 2
v -2 0 2
v 2 0 2
v 3 0 2
v 6 0 2
v 7 0 2
v 8 0 2
v -8 0 -2
v -7 0 -2
v -6 0 -2
v -3 0 -2
v -2 0 -2
v 2 0 -2
v 3 0 -2
v 6 0 -2
v 7 0 -2
v 8 0 -2
v -8 32 2
v 8 32 2
v -8 32 -2
v 8 32 -2

# faces
f 3/3/1 2/3/1 1/3/1
f 4/3/1 2/3/1 3/3/1
f 5/2/1 4/2/1 3/2/1
f 6/2/1 4/2/1 5/2/1
f 7/3/2 8/3/2 9/3/2
f 9/3/2 8/3/2 10/3/2
f 9/2/2 10/2/2 11/2/2
f 11/2/2 10/2/2 12/2/2
f 16/3/3 14/3/3 13/3/3
f 17/2/3 15/2/3 14/2/3
f 17/3/3 14/3/3 16/3/3
f 18/2/3 15/2/3 17/2/3
f 19/2/3 15/2/3 18/2/3
f 20/2/3 15/2/3 19/2/3
f 21/2/3 17/2/3 16/2/3
f 22/3/3 18/3/3 17/3/3
f 22/2/3 17/2/3 21/2/3
f 23/2/3 19/2/3 18/2/3
f 23/3/3 18/3/3 22/3/3
f 24/2/3 19/2/3 23/2/3
f 25/2/3 19/2/3 24/2/3
f 26/3/3 20/3/3 19/3/3
f 26/2/3 19/2/3 25/2/3
f 27/2/3 15/2/3 20/2/3
f 27/3/3 20/3/3 26/3/3
f 28/2/3 15/2/3 27/2/3
f 29/1/3 22/1/3 21/1/3
f 29/2/3 23/2/3 22/2/3
f 30/3/3 24/3/3 23/3/3
f 30/2/3 23/2/3 29/2/3
f 31/2/3 25/2/3 24/2/3
f 31/3/3 24/3/3 30/3/3
f 32/2/3 25/2/3 31/2/3
f 33/1/3 28/1/3 27/1/3
f 33/1/3 27/1/3 26/1/3
f 34/2/3 15/2/3 28/2/3
f 34/1/3 28/1/3 33/1/3
f 35/1/3 30/1/3 29/1/3
f 35/1/3 29/1/3 21/1/3
f 36/2/3 31/2/3 30/2/3
f 36/1/3 30/1/3 35/1/3
f 37/3/3 32/3/3 31/3/3
f 37/2/3 31/2/3 36/2/3
f 38/2/3 25/2/3 32/2/3
f 38/3/3 32/3/3 37/3/3
f 39/2/3 25/2/3 38/2/3
f 40/3/3 26/3/3 25/3/3
f 40/2/3 25/2/3 39/2/3
f 41/1/3 33/1/3 26/1/3
f 41/3/3 26/3/3 40/3/3
f 42/1/3 33/1/3 41/1/3
f 43/2/3 34/2/3 33/2/3
f 43/1/3 33/1/3 42/1/3
f 44/1/3 35/1/3 21/1/3
f 45/2/3 36/2/3 35/2/3
f 45/1/3 35/1/3 44/1/3
f 46/3/3 37/3/3 36/3/3
f 46/2/3 36/2/3 45/2/3
f 47/2/3 39/2/3 38/2/3
f 47/3/3 37/3/3 46/3/3
f 47/2/3 38/2/3 37/2/3
f 48/2/3 39/2/3 47/2/3
f 49/3/3 40/3/3 39/3/3
f 49/2/3 39/2/3 48/2/3
f 50/1/3 42/1/3 41/1/3
f 50/1/3 41/1/3 40/1/3
f 51/2/3 43/2/3 42/2/3
f 51/1/3 42/1/3 50/1/3
f 52/2/3 45/2/3 44/2/3
f 53/3/3 46/3/3 45/3/3
f 53/2/3 45/2/3 52/2/3
f 54/2/3 48/2/3 47/2/3
f 54/3/3 46/3/3 53/3/3
f 54/2/3 47/2/3 46/2/3
f 55/2/3 48/2/3 54/2/3
f 56/2/3 48/2/3 55/2/3
f 57/3/3 49/3/3 48/3/3
f 57/2/3 48/2/3 56/2/3
f 58/3/3 40/3/3 49/3/3
f 58/3/3 49/3/3 57/3/3
f 59/1/3 50/1/3 40/1/3
f 59/3/3 40/3/3 58/3/3
f 60/1/3 50/1/3 59/1/3
f 61/2/3 51/2/3 50/2/3
f 61/1/3 50/1/3 60/1/3
f 62/1/3 53/1/3 52/1/3
f 62/2/3 54/2/3 53/2/3
f 63/3/3 55/3/3 54/3/3
f 63/2/3 54/2/3 62/2/3
f 64/2/3 56/2/3 55/2/3
f 64/3/3 55/3/3 63/3/3
f 65/2/3 56/2/3 64/2/3
f 66/3/3 57/3/3 56/3/3
f 66/2/3 56/2/3 65/2/3
f 66/3/3 58/3/3 57/3/3
f 67/1/3 60/1/3 59/1/3
f 67/3/3 58/3/3 66/3/3
f 67/1/3 59/1/3 58/1/3
f 68/2/3 61/2/3 60/2/3
f 68/1/3 60/1/3 67/1/3
f 69/1/3 63/1/3 62/1/3
f 69/1/3 62/1/3 52/1/3
f 70/2/3 64/2/3 63/2/3
f 70/1/3 63/1/3 69/1/3
f 71/3/3 65/3/3 64/3/3
f 71/2/3 64/2/3 70/2/3
f 72/2/3 66/2/3 65/2/3
f 72/3/3 65/3/3 71/3/3
f 72/2/3 67/2/3 66/2/3
f 72/2/3 68/2/3 67/2/3
f 73/2/3 68/2/3 72/2/3
f 74/2/3 68/2/3 73/2/3
f 75/2/3 61/2/3 68/2/3
f 75/2/3 68/2/3 74/2/3
f 76/1/3 69/1/3 52/1/3
f 77/2/3 70/2/3 69/2/3
f 77/1/3 69/1/3 76/1/3
f 78/3/3 71/3/3 70/3/3
f 78/2/3 70/2/3 77/2/3
f 79/2/3 72/2/3 71/2/3
f 79/3/3 71/3/3 78/3/3
f 79/2/3 73/2/3 72/2/3
f 80/3/3 74/3/3 73/3/3
f 80/2/3 73/2/3 79/2/3
f 81/3/3 74/3/3 80/3/3
f 82/1/3 75/1/3 74/1/3
f 82/3/3 74/3/3 81/3/3
f 83/1/3 75/1/3 82/1/3
f 84/2/3 61/2/3 75/2/3
f 84/1/3 75/1/3 83/1/3
f 85/2/3 51/2/3 61/2/3
f 85/2/3 61/2/3 84/2/3
f 86/2/3 77/2/3 76/2/3
f 87/3/3 78/3/3 77/3/3
f 87/2/3 77/2/3 86/2/3
f 88/2/3 79/2/3 78/2/3
f 88/3/3 78/3/3 87/3/3
f 88/2/3 81/2/3 80/2/3
f 88/2/3 80/2/3 79/2/3
f 89/2/3 81/2/3 88/2/3
f 90/3/3 83/3/3 82/3/3
f 90/2/3 81/2/3 89/2/3
f 90/3/3 82/3/3 81/3/3
f 91/3/3 83/3/3 90/3/3
f 92/1/3 84/1/3 83/1/3
f 92/2/3 51/2/3 85/2/3
f 92/1/3 85/1/3 84/1/3
f 93/2/3 43/2/3 51/2/3
f 93/2/3 51/2/3 92/2/3
f 94/1/3 87/1/3 86/1/3
f 94/2/3 88/2/3 87/2/3
f 95/3/3 89/3/3 88/3/3
f 95/2/3 88/2/3 94/2/3
f 96/2/3 91/2/3 90/2/3
f 96/3/3 89/3/3 95/3/3
f 96/2/3 90/2/3 89/2/3
f 97/2/3 91/2/3 96/2/3
f 98/3/3 83/3/3 91/3/3
f 98/2/3 91/2/3 97/2/3
f 99/1/3 92/1/3 83/1/3
f 99/3/3 83/3/3 98/3/3
f 99/1/3 93/1/3 92/1/3
f 100/1/3 93/1/3 99/1/3
f 101/2/3 43/2/3 93/2/3
f 101/1/3 93/1/3 100/1/3
f 102/2/3 34/2/3 43/2/3
f 102/2/3 43/2/3 101/2/3
f 103/1/3 94/1/3 86/1/3
f 103/1/3 95/1/3 94/1/3
f 104/2/3 96/2/3 95/2/3
f 104/1/3 95/1/3 103/1/3
f 105/3/3 97/3/3 96/3/3
f 105/2/3 96/2/3 104/2/3
f 106/2/3 98/2/3 97/2/3
f 106/3/3 97/3/3 105/3/3
f 106/2/3 99/2/3 98/2/3
f 107/1/3 101/1/3 100/1/3
f 107/2/3 34/2/3 102/2/3
f 107/1/3 102/1/3 101/1/3
f 108/2/3 15/2/3 34/2/3
f 108/2/3 34/2/3 107/2/3
f 109/1/3 103/1/3 86/1/3
f 110/2/3 104/2/3 103/2/3
f 110/1/3 103/1/3 109/1/3
f 111/3/3 105/3/3 104/3/3
f 111/2/3 104/2/3 110/2/3
f 112/2/3 106/2/3 105/2/3
f 112/3/3 105/3/3 111/3/3
f 113/2/3 99/2/3 106/2/3
f 113/2/3 106/2/3 112/2/3
f 113/3/3 100/3/3 99/3/3
f 114/1/3 107/1/3 100/1/3
f 114/3/3 100/3/3 113/3/3
f 114/1/3 108/1/3 107/1/3
f 115/1/3 108/1/3 114/1/3
f 116/2/3 15/2/3 108/2/3
f 116/1/3 108/1/3 115/1/3
f 117/2/3 110/2/3 109/2/3
f 118/3/3 111/3/3 110/3/3
f 118/2/3 110/2/3 117/2/3
f 119/2/3 113/2/3 112/2/3
f 119/3/3 111/3/3 118/3/3
f 119/2/3 112/2/3 111/2/3
f 119/2/3 114/2/3 113/2/3
f 120/3/3 115/3/3 114/3/3
f 120/2/3 114/2/3 119/2/3
f 121/2/3 116/2/3 115/2/3
f 121/3/3 115/3/3 120/3/3
f 122/3/3 118/3/3 117/3/3
f 123/2/3 120/2/3 119/2/3
f 123/3/3 118/3/3 122/3/3
f 123/2/3 119/2/3 118/2/3
f 123/2/3 121/2/3 120/2/3
f 124/2/3 116/2/3 121/2/3
f 124/2/3 121/2/3 123/2/3
f 124/2/3 15/2/3 116/2/3
f 125/3/4 126/3/4 128/3/4
f 126/2/4 127/2/4 129/2/4
f 128/3/4 126/3/4 129/3/4
f 129/2/4 127/2/4 130/2/4
f 130/2/4 127/2/4 131/2/4
f 131/2/4 127/2/4 132/2/4
f 128/2/4 129/2/4 133/2/4
f 129/3/4 130/3/4 134/3/4
f 133/2/4 129/2/4 134/2/4
f 130/2/4 131/2/4 135/2/4
f 134/3/4 130/3/4 135/3/4
f 135/2/4 131/2/4 136/2/4
f 136/2/4 131/2/4 137/2/4
f 131/3/4 132/3/4 138/3/4
f 137/2/4 131/2/4 138/2/4
f 132/2/4 127/2/4 139/2/4
f 138/3/4 132/3/4 139/3/4
f 139/2/4 127/2/4 140/2/4
f 133/1/4 134/1/4 141/1/4
f 134/2/4 135/2/4 141/2/4
f 135/3/4 136/3/4 142/3/4
f 141/2/4 135/2/4 142/2/4
f 136/2/4 137/2/4 143/2/4
f 142/3/4 136/3/4 143/3/4
f 143/2/4 137/2/4 144/2/4
f 139/1/4 140/1/4 145/1/4
f 138/1/4 139/1/4 145/1/4
f 140/2/4 127/2/4 146/2/4
f 145/1/4 140/1/4 146/1/4
f 141/1/4 142/1/4 147/1/4
f 133/1/4 141/1/4 147/1/4
f 142/2/4 143/2/4 148/2/4
f 147/1/4 142/1/4 148/1/4
f 143/3/4 144/3/4 149/3/4
f 148/2/4 143/2/4 149/2/4
f 144/2/4 137/2/4 150/2/4
f 149/3/4 144/3/4 150/3/4
f 150/2/4 137/2/4 151/2/4
f 137/3/4 138/3/4 152/3/4
f 151/2/4 137/2/4 152/2/4
f 138/1/4 145/1/4 153/1/4
f 152/3/4 138/3/4 153/3/4
f 153/1/4 145/1/4 154/1/4
f 145/2/4 146/2/4 155/2/4
f 154/1/4 145/1/4 155/1/4
f 133/1/4 147/1/4 156/1/4
f 147/2/4 148/2/4 157/2/4
f 156/1/4 147/1/4 157/1/4
f 148/3/4 149/3/4 158/3/4
f 157/2/4 148/2/4 158/2/4
f 150/2/4 151/2/4 159/2/4
f 158/3/4 149/3/4 159/3/4
f 149/2/4 150/2/4 159/2/4
f 159/2/4 151/2/4 160/2/4
f 151/3/4 152/3/4 161/3/4
f 160/2/4 151/2/4 161/2/4
f 153/1/4 154/1/4 162/1/4
f 152/1/4 153/1/4 162/1/4
f 154/2/4 155/2/4 163/2/4
f 162/1/4 154/1/4 163/1/4
f 156/2/4 157/2/4 164/2/4
f 157/3/4 158/3/4 165/3/4
f 164/2/4 157/2/4 165/2/4
f 159/2/4 160/2/4 166/2/4
f 165/3/4 158/3/4 166/3/4
f 158/2/4 159/2/4 166/2/4
f 166/2/4 160/2/4 167/2/4
f 167/2/4 160/2/4 168/2/4
f 160/3/4 161/3/4 169/3/4
f 168/2/4 160/2/4 169/2/4
f 161/3/4 152/3/4 170/3/4
f 169/3/4 161/3/4 170/3/4
f 152/1/4 162/1/4 171/1/4
f 170/3/4 152/3/4 171/3/4
f 171/1/4 162/1/4 172/1/4
f 162/2/4 163/2/4 173/2/4
f 172/1/4 162/1/4 173/1/4
f 164/1/4 165/1/4 174/1/4
f 165/2/4 166/2/4 174/2/4
f 166/3/4 167/3/4 175/3/4
f 174/2/4 166/2/4 175/2/4
f 167/2/4 168/2/4 176/2/4
f 175/3/4 167/3/4 176/3/4
f 176/2/4 168/2/4 177/2/4
f 168/3/4 169/3/4 178/3/4
f 177/2/4 168/2/4 178/2/4
f 169/3/4 170/3/4 178/3/4
f 171/1/4 172/1/4 179/1/4
f 178/3/4 170/3/4 179/3/4
f 170/1/4 171/1/4 179/1/4
f 172/2/4 173/2/4 180/2/4
f 179/1/4 172/1/4 180/1/4
f 174/1/4 175/1/4 181/1/4
f 164/1/4 174/1/4 181/1/4
f 175/2/4 176/2/4 182/2/4
f 181/1/4 175/1/4 182/1/4
f 176/3/4 177/3/4 183/3/4
f 182/2/4 176/2/4 183/2/4
f 177/2/4 178/2/4 184/2/4
f 183/3/4 177/3/4 184/3/4
f 178/2/4 179/2/4 184/2/4
f 179/2/4 180/2/4 184/2/4
f 184/2/4 180/2/4 185/2/4
f 185/2/4 180/2/4 186/2/4
f 180/2/4 173/2/4 187/2/4
f 186/2/4 180/2/4 187/2/4
f 164/1/4 181/1/4 188/1/4
f 181/2/4 182/2/4 189/2/4
f 188/1/4 181/1/4 189/1/4
f 182/3/4 183/3/4 190/3/4
f 189/2/4 182/2/4 190/2/4
f 183/2/4 184/2/4 191/2/4
f 190/3/4 183/3/4 191/3/4
f 184/2/4 185/2/4 191/2/4
f 185/3/4 186/3/4 192/3/4
f 191/2/4 185/2/4 192/2/4
f 192/3/4 186/3/4 193/3/4
f 186/1/4 187/1/4 194/1/4
f 193/3/4 186/3/4 194/3/4
f 194/1/4 187/1/4 195/1/4
f 187/2/4 173/2/4 196/2/4
f 195/1/4 187/1/4 196/1/4
f 173/2/4 163/2/4 197/2/4
f 196/2/4 173/2/4 197/2/4
f 188/2/4 189/2/4 198/2/4
f 189/3/4 190/3/4 199/3/4
f 198/2/4 189/2/4 199/2/4
f 190/2/4 191/2/4 200/2/4
f 199/3/4 190/3/4 200/3/4
f 192/2/4 193/2/4 200/2/4
f 191/2/4 192/2/4 200/2/4
f 200/2/4 193/2/4 201/2/4
f 194/3/4 195/3/4 202/3/4
f 201/2/4 193/2/4 202/2/4
f 193/3/4 194/3/4 202/3/4
f 202/3/4 195/3/4 203/3/4
f 195/1/4 196/1/4 204/1/4
f 197/2/4 163/2/4 204/2/4
f 196/1/4 197/1/4 204/1/4
f 163/2/4 155/2/4 205/2/4
f 204/2/4 163/2/4 205/2/4
f 198/1/4 199/1/4 206/1/4
f 199/2/4 200/2/4 206/2/4
f 200/3/4 201/3/4 207/3/4
f 206/2/4 200/2/4 207/2/4
f 202/2/4 203/2/4 208/2/4
f 207/3/4 201/3/4 208/3/4
f 201/2/4 202/2/4 208/2/4
f 208/2/4 203/2/4 209/2/4
f 203/3/4 195/3/4 210/3/4
f 209/2/4 203/2/4 210/2/4
f 195/1/4 204/1/4 211/1/4
f 210/3/4 195/3/4 211/3/4
f 204/1/4 205/1/4 211/1/4
f 211/1/4 205/1/4 212/1/4
f 205/2/4 155/2/4 213/2/4
f 212/1/4 205/1/4 213/1/4
f 155/2/4 146/2/4 214/2/4
f 213/2/4 155/2/4 214/2/4
f 198/1/4 206/1/4 215/1/4
f 206/1/4 207/1/4 215/1/4
f 207/2/4 208/2/4 216/2/4
f 215/1/4 207/1/4 216/1/4
f 208/3/4 209/3/4 217/3/4
f 216/2/4 208/2/4 217/2/4
f 209/2/4 210/2/4 218/2/4
f 217/3/4 209/3/4 218/3/4
f 210/2/4 211/2/4 218/2/4
f 212/1/4 213/1/4 219/1/4
f 214/2/4 146/2/4 219/2/4
f 213/1/4 214/1/4 219/1/4
f 146/2/4 127/2/4 220/2/4
f 219/2/4 146/2/4 220/2/4
f 198/1/4 215/1/4 221/1/4
f 215/2/4 216/2/4 222/2/4
f 221/1/4 215/1/4 222/1/4
f 216/3/4 217/3/4 223/3/4
f 222/2/4 216/2/4 223/2/4
f 217/2/4 218/2/4 224/2/4
f 223/3/4 217/3/4 224/3/4
f 218/2/4 211/2/4 225/2/4
f 224/2/4 218/2/4 225/2/4
f 211/3/4 212/3/4 225/3/4
f 212/1/4 219/1/4 226/1/4
f 225/3/4 212/3/4 226/3/4
f 219/1/4 220/1/4 226/1/4
f 226/1/4 220/1/4 227/1/4
f 220/2/4 127/2/4 228/2/4
f 227/1/4 220/1/4 228/1/4
f 221/2/4 222/2/4 229/2/4
f 222/3/4 223/3/4 230/3/4
f 229/2/4 222/2/4 230/2/4
f 224/2/4 225/2/4 231/2/4
f 230/3/4 223/3/4 231/3/4
f 223/2/4 224/2/4 231/2/4
f 225/2/4 226/2/4 231/2/4
f 226/3/4 227/3/4 232/3/4
f 231/2/4 226/2/4 232/2/4
f 227/2/4 228/2/4 233/2/4
f 232/3/4 227/3/4 233/3/4
f 229/3/4 230/3/4 234/3/4
f 231/2/4 232/2/4 235/2/4
f 234/3/4 230/3/4 235/3/4
f 230/2/4 231/2/4 235/2/4
f 232/2/4 233/2/4 235/2/4
f 233/2/4 228/2/4 236/2/4
f 235/2/4 233/2/4 236/2/4
f 228/2/4 127/2/4 236/2/4
f 247/3/5 238/3/5 237/3/5
f 248/2/5 239/2/5 238/2/5
f 248/3/5 238/3/5 247/3/5
f 249/1/5 240/1/5 239/1/5
f 249/2/5 239/2/5 248/2/5
f 250/2/5 241/2/5 240/2/5
f 250/1/5 240/1/5 249/1/5
f 251/1/5 242/1/5 241/1/5
f 251/2/5 241/2/5 250/2/5
f 252/2/5 243/2/5 242/2/5
f 252/1/5 242/1/5 251/1/5
f 253/1/5 244/1/5 243/1/5
f 253/2/5 243/2/5 252/2/5
f 254/2/5 245/2/5 244/2/5
f 254/1/5 244/1/5 253/1/5
f 255/3/5 246/3/5 245/3/5
f 255/2/5 245/2/5 254/2/5
f 256/3/5 246/3/5 255/3/5
f 257/2/6 258/2/6 259/2/6
f 259/2/6 258/2/6 260/2/6
