# MagicaVoxel @ Ephtracy

# material
mtllib Dung Tourch.mtl
usemtl palette

# normals
vn -1 0 0
vn 1 0 0
vn 0 0 1
vn 0 0 -1
vn 0 -1 0
vn 0 1 0

# texcoords
vt 0.0136719 0.5
vt 0.0175781 0.5
vt 0.0214844 0.5
vt 0.0644531 0.5
vt 0.0683594 0.5

# verts
v -3 5 3.5
v -3 5 1.5
v -3 5 -0.5
v -3 5 -2.5
v -3 7 3.5
v -3 7 1.5
v -3 7 -0.5
v -3 7 -2.5
v -2 3 2.5
v -2 3 -1.5
v -2 4 1.5
v -2 4 -0.5
v -2 5 2.5
v -2 5 1.5
v -2 5 -0.5
v -2 5 -1.5
v -1 0 1.5
v -1 0 -0.5
v -1 2 1.5
v -1 2 -0.5
v -1 3 1.5
v -1 3 -0.5
v -1 5 -2.5
v -1 5 -3.5
v -1 6 -2.5
v -1 6 -3.5
v 0 2 -0.5
v 0 2 -3.5
v 0 3 -0.5
v 0 3 -1.5
v 0 3 -3.5
v 0 5 -2.5
v 0 5 -3.5
v 0 6 -2.5
v 0 6 -3.5
v 1 0 1.5
v 1 0 -0.5
v 1 2 1.5
v 1 2 -0.5
v 1 2 -3.5
v 1 3 1.5
v 1 3 -1.5
v 1 3 -3.5
v 2 3 2.5
v 2 3 -1.5
v 2 4 1.5
v 2 4 -0.5
v 2 5 2.5
v 2 5 1.5
v 2 5 -0.5
v 2 5 -1.5
v 3 5 3.5
v 3 5 1.5
v 3 5 -0.5
v 3 5 -2.5
v 3 7 3.5
v 3 7 1.5
v 3 7 -0.5
v 3 7 -2.5
v -3 5 3.5
v -3 7 3.5
v -1 5 3.5
v -1 7 3.5
v 1 5 3.5
v 1 7 3.5
v 3 5 3.5
v 3 7 3.5
v -2 3 2.5
v -2 5 2.5
v -1 4 2.5
v -1 5 2.5
v 1 4 2.5
v 1 5 2.5
v 2 3 2.5
v 2 5 2.5
v -1 0 1.5
v -1 2 1.5
v -1 3 1.5
v 1 0 1.5
v 1 2 1.5
v 1 3 1.5
v -1 0 -0.5
v -1 2 -0.5
v -1 3 -0.5
v 0 2 -0.5
v 0 3 -0.5
v 1 0 -0.5
v 1 2 -0.5
v -2 3 -1.5
v -2 5 -1.5
v -1 4 -1.5
v -1 5 -1.5
v 0 3 -1.5
v 0 5 -1.5
v 1 3 -1.5
v 1 4 -1.5
v 1 5 -1.5
v 2 3 -1.5
v 2 5 -1.5
v -3 5 -2.5
v -3 7 -2.5
v -1 5 -2.5
v -1 6 -2.5
v -1 7 -2.5
v 0 5 -2.5
v 0 6 -2.5
v 1 5 -2.5
v 1 7 -2.5
v 3 5 -2.5
v 3 7 -2.5
v -1 5 -3.5
v -1 6 -3.5
v 0 2 -3.5
v 0 3 -3.5
v 0 5 -3.5
v 0 6 -3.5
v 1 2 -3.5
v 1 3 -3.5
v -1 0 1.5
v 1 0 1.5
v -1 0 -0.5
v 1 0 -0.5
v 0 2 -0.5
v 1 2 -0.5
v 0 2 -3.5
v 1 2 -3.5
v -2 3 2.5
v 2 3 2.5
v -1 3 1.5
v 1 3 1.5
v -1 3 -0.5
v 0 3 -0.5
v -2 3 -1.5
v 0 3 -1.5
v 1 3 -1.5
v 2 3 -1.5
v -3 5 3.5
v -1 5 3.5
v 1 5 3.5
v 3 5 3.5
v -2 5 2.5
v -1 5 2.5
v 1 5 2.5
v 2 5 2.5
v -3 5 1.5
v -2 5 1.5
v 2 5 1.5
v 3 5 1.5
v -3 5 -0.5
v -2 5 -0.5
v 2 5 -0.5
v 3 5 -0.5
v -2 5 -1.5
v -1 5 -1.5
v 0 5 -1.5
v 1 5 -1.5
v 2 5 -1.5
v -3 5 -2.5
v -1 5 -2.5
v 0 5 -2.5
v 1 5 -2.5
v 3 5 -2.5
v -1 5 -3.5
v 0 5 -3.5
v 0 3 -1.5
v 1 3 -1.5
v 0 3 -3.5
v 1 3 -3.5
v -1 6 -2.5
v 0 6 -2.5
v -1 6 -3.5
v 0 6 -3.5
v -3 7 3.5
v -1 7 3.5
v 1 7 3.5
v 3 7 3.5
v -2 7 2.5
v -1 7 2.5
v 1 7 2.5
v 2 7 2.5
v -3 7 1.5
v -2 7 1.5
v -1 7 1.5
v 1 7 1.5
v 2 7 1.5
v 3 7 1.5
v -3 7 -0.5
v -2 7 -0.5
v -1 7 -0.5
v 1 7 -0.5
v 2 7 -0.5
v 3 7 -0.5
v -2 7 -1.5
v -1 7 -1.5
v 1 7 -1.5
v 2 7 -1.5
v -3 7 -2.5
v -1 7 -2.5
v 1 7 -2.5
v 3 7 -2.5

# faces
f 5/2/1 2/2/1 1/2/1
f 6/3/1 3/3/1 2/3/1
f 6/2/1 2/2/1 5/2/1
f 7/2/1 4/2/1 3/2/1
f 7/3/1 3/3/1 6/3/1
f 8/2/1 4/2/1 7/2/1
f 11/2/1 10/2/1 9/2/1
f 12/2/1 10/2/1 11/2/1
f 13/2/1 11/2/1 9/2/1
f 14/3/1 12/3/1 11/3/1
f 14/2/1 11/2/1 13/2/1
f 15/2/1 10/2/1 12/2/1
f 15/3/1 12/3/1 14/3/1
f 16/2/1 10/2/1 15/2/1
f 19/1/1 18/1/1 17/1/1
f 20/1/1 18/1/1 19/1/1
f 21/2/1 20/2/1 19/2/1
f 22/2/1 20/2/1 21/2/1
f 25/2/1 24/2/1 23/2/1
f 26/2/1 24/2/1 25/2/1
f 29/2/1 28/2/1 27/2/1
f 30/2/1 28/2/1 29/2/1
f 31/2/1 28/2/1 30/2/1
f 32/2/2 33/2/2 34/2/2
f 34/2/2 33/2/2 35/2/2
f 36/1/2 37/1/2 38/1/2
f 38/1/2 37/1/2 39/1/2
f 38/2/2 39/2/2 41/2/2
f 39/2/2 40/2/2 41/2/2
f 41/2/2 40/2/2 42/2/2
f 42/2/2 40/2/2 43/2/2
f 44/2/2 45/2/2 46/2/2
f 46/2/2 45/2/2 47/2/2
f 44/2/2 46/2/2 48/2/2
f 46/3/2 47/3/2 49/3/2
f 48/2/2 46/2/2 49/2/2
f 47/2/2 45/2/2 50/2/2
f 49/3/2 47/3/2 50/3/2
f 50/2/2 45/2/2 51/2/2
f 52/2/2 53/2/2 56/2/2
f 53/3/2 54/3/2 57/3/2
f 56/2/2 53/2/2 57/2/2
f 54/2/2 55/2/2 58/2/2
f 57/3/2 54/3/2 58/3/2
f 58/2/2 55/2/2 59/2/2
f 62/2/3 61/2/3 60/2/3
f 63/2/3 61/2/3 62/2/3
f 64/3/3 63/3/3 62/3/3
f 65/3/3 63/3/3 64/3/3
f 66/2/3 65/2/3 64/2/3
f 67/2/3 65/2/3 66/2/3
f 70/2/3 69/2/3 68/2/3
f 71/2/3 69/2/3 70/2/3
f 72/2/3 70/2/3 68/2/3
f 72/3/3 71/3/3 70/3/3
f 73/3/3 71/3/3 72/3/3
f 74/2/3 72/2/3 68/2/3
f 74/2/3 73/2/3 72/2/3
f 75/2/3 73/2/3 74/2/3
f 79/1/3 77/1/3 76/1/3
f 80/2/3 78/2/3 77/2/3
f 80/1/3 77/1/3 79/1/3
f 81/2/3 78/2/3 80/2/3
f 82/1/4 83/1/4 85/1/4
f 83/2/4 84/2/4 85/2/4
f 85/2/4 84/2/4 86/2/4
f 82/1/4 85/1/4 87/1/4
f 87/1/4 85/1/4 88/1/4
f 89/2/4 90/2/4 91/2/4
f 91/2/4 90/2/4 92/2/4
f 89/2/4 91/2/4 93/2/4
f 91/3/4 92/3/4 94/3/4
f 93/2/4 91/2/4 95/2/4
f 91/3/4 94/3/4 96/3/4
f 95/2/4 91/2/4 96/2/4
f 96/3/4 94/3/4 97/3/4
f 95/2/4 96/2/4 98/2/4
f 96/2/4 97/2/4 98/2/4
f 98/2/4 97/2/4 99/2/4
f 100/2/4 101/2/4 102/2/4
f 102/2/4 101/2/4 103/2/4
f 103/2/4 101/2/4 104/2/4
f 103/3/4 104/3/4 106/3/4
f 105/3/4 106/3/4 107/3/4
f 106/3/4 104/3/4 108/3/4
f 107/3/4 106/3/4 108/3/4
f 107/2/4 108/2/4 109/2/4
f 109/2/4 108/2/4 110/2/4
f 111/2/4 112/2/4 115/2/4
f 115/2/4 112/2/4 116/2/4
f 113/2/4 114/2/4 117/2/4
f 117/2/4 114/2/4 118/2/4
f 121/1/5 120/1/5 119/1/5
f 122/1/5 120/1/5 121/1/5
f 125/2/5 124/2/5 123/2/5
f 126/2/5 124/2/5 125/2/5
f 129/2/5 128/2/5 127/2/5
f 130/2/5 128/2/5 129/2/5
f 131/2/5 129/2/5 127/2/5
f 133/2/5 131/2/5 127/2/5
f 133/2/5 132/2/5 131/2/5
f 134/2/5 132/2/5 133/2/5
f 135/2/5 128/2/5 130/2/5
f 136/2/5 128/2/5 135/2/5
f 141/2/5 138/2/5 137/2/5
f 142/3/5 139/3/5 138/3/5
f 142/2/5 138/2/5 141/2/5
f 143/2/5 140/2/5 139/2/5
f 143/3/5 139/3/5 142/3/5
f 144/2/5 140/2/5 143/2/5
f 145/2/5 141/2/5 137/2/5
f 146/2/5 141/2/5 145/2/5
f 147/2/5 140/2/5 144/2/5
f 148/2/5 140/2/5 147/2/5
f 149/3/5 146/3/5 145/3/5
f 150/3/5 146/3/5 149/3/5
f 151/3/5 148/3/5 147/3/5
f 152/3/5 148/3/5 151/3/5
f 153/2/5 150/2/5 149/2/5
f 157/2/5 152/2/5 151/2/5
f 158/2/5 153/2/5 149/2/5
f 158/2/5 154/2/5 153/2/5
f 158/2/5 155/2/5 154/2/5
f 159/2/5 155/2/5 158/2/5
f 160/3/5 156/3/5 155/3/5
f 160/2/5 155/2/5 159/2/5
f 161/2/5 157/2/5 156/2/5
f 161/3/5 156/3/5 160/3/5
f 162/2/5 152/2/5 157/2/5
f 162/2/5 157/2/5 161/2/5
f 163/2/5 160/2/5 159/2/5
f 164/2/5 160/2/5 163/2/5
f 165/2/6 166/2/6 167/2/6
f 167/2/6 166/2/6 168/2/6
f 169/2/6 170/2/6 171/2/6
f 171/2/6 170/2/6 172/2/6
f 173/2/6 174/2/6 177/2/6
f 174/3/6 175/3/6 178/3/6
f 177/2/6 174/2/6 178/2/6
f 175/2/6 176/2/6 179/2/6
f 178/3/6 175/3/6 179/3/6
f 179/2/6 176/2/6 180/2/6
f 173/2/6 177/2/6 181/2/6
f 177/4/6 178/4/6 182/4/6
f 181/2/6 177/2/6 182/2/6
f 178/4/6 179/4/6 182/4/6
f 179/4/6 180/4/6 182/4/6
f 182/4/6 180/4/6 183/4/6
f 183/4/6 180/4/6 184/4/6
f 180/2/6 176/2/6 185/2/6
f 184/4/6 180/4/6 185/4/6
f 185/2/6 176/2/6 186/2/6
f 181/3/6 182/3/6 187/3/6
f 182/4/6 183/4/6 188/4/6
f 187/3/6 182/3/6 188/3/6
f 183/5/6 184/5/6 189/5/6
f 188/4/6 183/4/6 189/4/6
f 184/4/6 185/4/6 190/4/6
f 189/5/6 184/5/6 190/5/6
f 185/3/6 186/3/6 191/3/6
f 190/4/6 185/4/6 191/4/6
f 191/3/6 186/3/6 192/3/6
f 187/2/6 188/2/6 193/2/6
f 188/4/6 189/4/6 193/4/6
f 189/4/6 190/4/6 193/4/6
f 190/4/6 191/4/6 193/4/6
f 193/4/6 191/4/6 194/4/6
f 194/4/6 191/4/6 195/4/6
f 191/2/6 192/2/6 196/2/6
f 195/4/6 191/4/6 196/4/6
f 187/2/6 193/2/6 197/2/6
f 193/2/6 194/2/6 197/2/6
f 194/3/6 195/3/6 198/3/6
f 197/2/6 194/2/6 198/2/6
f 195/2/6 196/2/6 199/2/6
f 198/3/6 195/3/6 199/3/6
f 196/2/6 192/2/6 200/2/6
f 199/2/6 196/2/6 200/2/6
