# MagicaVoxel @ Ephtracy

# material
mtllib 5x5 dungeon edge.mtl
usemtl palette

# normals
vn -1 0 0
vn 1 0 0
vn 0 0 1
vn 0 0 -1
vn 0 -1 0
vn 0 1 0

# texcoords
vt 0.0136719 0.5
vt 0.0175781 0.5
vt 0.0214844 0.5

# verts
v -4 79 4
v -4 79 -4
v -4 80 4
v -4 80 -4
v -3 0 3
v -3 0 -3
v -3 1 3
v -3 1 -3
v -3 3 3
v -3 3 -3
v -3 78 3
v -3 78 -3
v -3 79 3
v -3 79 -3
v -2 3 2
v -2 3 -2
v -2 77 2
v -2 77 -2
v -2 78 2
v -2 78 -2
v 2 3 2
v 2 3 -2
v 2 77 2
v 2 77 -2
v 2 78 2
v 2 78 -2
v 3 0 3
v 3 0 -3
v 3 1 3
v 3 1 -3
v 3 3 3
v 3 3 -3
v 3 78 3
v 3 78 -3
v 3 79 3
v 3 79 -3
v 4 79 4
v 4 79 -4
v 4 80 4
v 4 80 -4
v -4 79 4
v -4 80 4
v 4 79 4
v 4 80 4
v -3 0 3
v -3 1 3
v -3 3 3
v -3 78 3
v -3 79 3
v 3 0 3
v 3 1 3
v 3 3 3
v 3 78 3
v 3 79 3
v -2 3 2
v -2 77 2
v -2 78 2
v 2 3 2
v 2 77 2
v 2 78 2
v -2 3 -2
v -2 77 -2
v -2 78 -2
v 2 3 -2
v 2 77 -2
v 2 78 -2
v -3 0 -3
v -3 1 -3
v -3 3 -3
v -3 78 -3
v -3 79 -3
v 3 0 -3
v 3 1 -3
v 3 3 -3
v 3 78 -3
v 3 79 -3
v -4 79 -4
v -4 80 -4
v 4 79 -4
v 4 80 -4
v -3 0 3
v 3 0 3
v -3 0 -3
v 3 0 -3
v -3 78 3
v 3 78 3
v -2 78 2
v 2 78 2
v -2 78 -2
v 2 78 -2
v -3 78 -3
v 3 78 -3
v -4 79 4
v 4 79 4
v -3 79 3
v 3 79 3
v -3 79 -3
v 3 79 -3
v -4 79 -4
v 4 79 -4
v -3 3 3
v 3 3 3
v -2 3 2
v 2 3 2
v -2 3 -2
v 2 3 -2
v -3 3 -3
v 3 3 -3
v -4 80 4
v 4 80 4
v -4 80 -4
v 4 80 -4

# faces
f 3/3/1 2/3/1 1/3/1
f 4/3/1 2/3/1 3/3/1
f 7/1/1 6/1/1 5/1/1
f 8/1/1 6/1/1 7/1/1
f 9/2/1 8/2/1 7/2/1
f 10/2/1 8/2/1 9/2/1
f 13/2/1 12/2/1 11/2/1
f 14/2/1 12/2/1 13/2/1
f 17/3/1 16/3/1 15/3/1
f 18/3/1 16/3/1 17/3/1
f 19/1/1 18/1/1 17/1/1
f 20/1/1 18/1/1 19/1/1
f 21/3/2 22/3/2 23/3/2
f 23/3/2 22/3/2 24/3/2
f 23/1/2 24/1/2 25/1/2
f 25/1/2 24/1/2 26/1/2
f 27/1/2 28/1/2 29/1/2
f 29/1/2 28/1/2 30/1/2
f 29/2/2 30/2/2 31/2/2
f 31/2/2 30/2/2 32/2/2
f 33/2/2 34/2/2 35/2/2
f 35/2/2 34/2/2 36/2/2
f 37/3/2 38/3/2 39/3/2
f 39/3/2 38/3/2 40/3/2
f 43/3/3 42/3/3 41/3/3
f 44/3/3 42/3/3 43/3/3
f 50/1/3 46/1/3 45/1/3
f 51/2/3 47/2/3 46/2/3
f 51/1/3 46/1/3 50/1/3
f 52/2/3 47/2/3 51/2/3
f 53/2/3 49/2/3 48/2/3
f 54/2/3 49/2/3 53/2/3
f 58/3/3 56/3/3 55/3/3
f 59/1/3 57/1/3 56/1/3
f 59/3/3 56/3/3 58/3/3
f 60/1/3 57/1/3 59/1/3
f 61/3/4 62/3/4 64/3/4
f 62/1/4 63/1/4 65/1/4
f 64/3/4 62/3/4 65/3/4
f 65/1/4 63/1/4 66/1/4
f 67/1/4 68/1/4 72/1/4
f 68/2/4 69/2/4 73/2/4
f 72/1/4 68/1/4 73/1/4
f 73/2/4 69/2/4 74/2/4
f 70/2/4 71/2/4 75/2/4
f 75/2/4 71/2/4 76/2/4
f 77/3/4 78/3/4 79/3/4
f 79/3/4 78/3/4 80/3/4
f 83/1/5 82/1/5 81/1/5
f 84/1/5 82/1/5 83/1/5
f 87/2/5 86/2/5 85/2/5
f 88/2/5 86/2/5 87/2/5
f 89/2/5 87/2/5 85/2/5
f 90/2/5 86/2/5 88/2/5
f 91/2/5 89/2/5 85/2/5
f 91/2/5 90/2/5 89/2/5
f 92/2/5 86/2/5 90/2/5
f 92/2/5 90/2/5 91/2/5
f 95/3/5 94/3/5 93/3/5
f 96/3/5 94/3/5 95/3/5
f 97/3/5 95/3/5 93/3/5
f 98/3/5 94/3/5 96/3/5
f 99/3/5 97/3/5 93/3/5
f 99/3/5 98/3/5 97/3/5
f 100/3/5 94/3/5 98/3/5
f 100/3/5 98/3/5 99/3/5
f 101/2/6 102/2/6 103/2/6
f 103/2/6 102/2/6 104/2/6
f 101/2/6 103/2/6 105/2/6
f 104/2/6 102/2/6 106/2/6
f 101/2/6 105/2/6 107/2/6
f 105/2/6 106/2/6 107/2/6
f 106/2/6 102/2/6 108/2/6
f 107/2/6 106/2/6 108/2/6
f 109/3/6 110/3/6 111/3/6
f 111/3/6 110/3/6 112/3/6
